<svg width="832" height="166" viewBox="0 0 832 166" fill="none" xmlns="http://www.w3.org/2000/svg">
<g clip-path="url(#clip0_2137_33312)">
<path d="M198.39 146.741V52.2962H221.861V146.741H198.39ZM197.272 36.7407V11H222.793V36.7407H197.272Z" fill="#2F2F2F"/>
<path d="M233.74 146.741V52.2962H256.652V74.5184H257.211V146.741H233.74ZM300.429 146.741V87.111C300.429 81.3085 298.938 76.9258 295.958 73.9629C292.977 70.9999 288.631 69.5184 282.918 69.5184C277.951 69.5184 273.48 70.6295 269.506 72.8518C265.656 75.074 262.613 78.1604 260.378 82.111C258.267 86.0616 257.211 90.6295 257.211 95.8147L254.789 73.2221C258.018 66.3086 262.738 60.8147 268.947 56.7407C275.156 52.5431 282.608 50.4444 291.301 50.4444C301.608 50.4444 309.619 53.3456 315.331 59.1481C321.168 64.9505 324.086 72.6666 324.086 82.2962V146.741H300.429Z" fill="#2F2F2F"/>
<path d="M373.964 148.592C362.29 148.592 353.659 145.876 348.07 140.444C342.606 134.889 339.874 126.617 339.874 115.629V30.8148L363.532 22.1111V116.185C363.532 120.753 364.774 124.148 367.257 126.37C369.741 128.592 373.653 129.704 378.993 129.704C381.104 129.704 382.967 129.58 384.582 129.333C386.32 128.963 387.935 128.531 389.425 128.037V146.185C387.935 146.926 385.823 147.481 383.091 147.852C380.359 148.345 377.317 148.592 373.964 148.592ZM321.618 70.6295V52.2962H389.425V70.6295H321.618Z" fill="#2F2F2F"/>
<path d="M434.249 148.592C424.19 148.592 415.31 146.494 407.611 142.296C400.035 138.099 394.136 132.296 389.914 124.889C385.692 117.358 383.58 108.778 383.58 99.148C383.58 89.5184 385.692 81.0616 389.914 73.7777C394.136 66.4937 400.035 60.8147 407.611 56.7407C415.31 52.5431 424.19 50.4444 434.249 50.4444C444.432 50.4444 453.312 52.5431 460.887 56.7407C468.463 60.8147 474.362 66.4937 478.584 73.7777C482.807 81.0616 484.918 89.5184 484.918 99.148C484.918 108.778 482.745 117.358 478.398 124.889C474.176 132.296 468.277 138.099 460.701 142.296C453.126 146.494 444.308 148.592 434.249 148.592ZM434.249 129.889C439.217 129.889 443.687 128.654 447.661 126.185C451.635 123.592 454.74 120.012 456.975 115.444C459.211 110.753 460.329 105.259 460.329 98.9628C460.329 89.7036 457.845 82.4197 452.877 77.111C448.034 71.8024 441.825 69.1481 434.249 69.1481C426.674 69.1481 420.402 71.8024 415.435 77.111C410.467 82.4197 407.983 89.7036 407.983 98.9628C407.983 105.259 409.101 110.753 411.336 115.444C413.696 120.012 416.801 123.592 420.65 126.185C424.624 128.654 429.157 129.889 434.249 129.889Z" fill="#2F2F2F"/>
<path d="M512.866 146.741L474.864 52.2962H500.199L530.563 139.148H518.082L548.446 52.2962H573.035L534.847 146.741H512.866Z" fill="#2F2F2F"/>
<path d="M571.791 146.741V52.2962H595.262V146.741H571.791ZM570.673 36.7407V11H596.194V36.7407H570.673Z" fill="#2F2F2F"/>
<path d="M649.436 148.592C639.376 148.592 630.559 146.494 622.983 142.296C615.532 138.099 609.695 132.296 605.473 124.889C601.375 117.481 599.326 108.963 599.326 99.3332C599.326 89.7036 601.375 81.2468 605.473 73.9629C609.695 66.5555 615.532 60.8147 622.983 56.7407C630.435 52.5431 639.128 50.4444 649.063 50.4444C658.501 50.4444 666.698 52.4197 673.652 56.3703C680.607 60.1975 686.009 65.6296 689.859 72.6666C693.709 79.7036 695.633 87.9135 695.633 97.2962C695.633 99.0246 695.571 100.63 695.447 102.111C695.323 103.592 695.137 105.074 694.888 106.555H613.856V90.2591H676.819L671.976 94.7036C671.976 85.8147 669.927 79.1481 665.828 74.7036C661.73 70.2592 656.017 68.037 648.69 68.037C640.742 68.037 634.409 70.753 629.69 76.1851C625.095 81.6172 622.797 89.4567 622.797 99.7036C622.797 109.827 625.095 117.605 629.69 123.037C634.409 128.346 641.053 131 649.622 131C654.589 131 658.936 130.074 662.662 128.222C666.387 126.37 669.119 123.531 670.858 119.704H693.026C689.921 128.592 684.643 135.629 677.192 140.815C669.864 146 660.612 148.592 649.436 148.592Z" fill="#2F2F2F"/>
<path d="M717.535 146.741L688.475 52.2962H713.064L730.202 123.222H728.525L749.575 52.2962H770.998L792.42 123.222H790.557L807.509 52.2962H831.539L802.479 146.741H780.498L759.076 76.5555H760.938L739.516 146.741H717.535Z" fill="#2F2F2F"/>
<path d="M71.067 8.0181H-3C-3.55228 8.0181 -4 8.46581 -4 9.0181V149.9C-4 150.452 -3.55228 150.9 -3 150.9H71.0163C71.1125 150.9 71.2082 150.914 71.3004 150.941L133.828 169.472C134.093 169.55 134.379 169.515 134.617 169.376L144.486 163.599C144.792 163.42 144.981 163.091 144.981 162.736V4.05597C144.981 3.73009 144.822 3.42466 144.555 3.23745L134.589 -3.75703C134.368 -3.91235 134.093 -3.97145 133.828 -3.92085L71.2541 8.00043C71.1924 8.01218 71.1298 8.0181 71.067 8.0181Z" fill="white"/>
<path fill-rule="evenodd" clip-rule="evenodd" d="M71.0967 11.5391H0.392578C0.116436 11.5391 -0.107422 11.763 -0.107422 12.0391V147.065C-0.107422 147.341 0.116435 147.565 0.392577 147.565H71.0713C71.1196 147.565 71.1677 147.572 71.214 147.586L131.827 165.641C131.958 165.68 132.099 165.663 132.218 165.595L140.848 160.664C141.004 160.575 141.1 160.409 141.1 160.23V6.6145C141.1 6.45302 141.022 6.30149 140.891 6.20763L132.206 0.00426832C132.095 -0.0752336 131.956 -0.105667 131.821 -0.0799422L71.1907 11.5302C71.1597 11.5361 71.1283 11.5391 71.0967 11.5391ZM127.984 5.05641L72.4382 15.7894V143.243L127.984 159.343V5.05641ZM116.712 88.6648C119.698 88.6648 122.119 86.2439 122.119 83.2576C122.119 80.2712 119.698 77.8503 116.712 77.8503C113.725 77.8503 111.304 80.2712 111.304 83.2576C111.304 86.2439 113.725 88.6648 116.712 88.6648ZM35.3427 69.524H5.06445V15.4414C15.2232 19.6791 22.3637 29.7057 22.3648 41.4002C29.8385 41.5898 35.8627 47.612 36.0555 55.0849L36.0751 55.0849C40.0569 55.0849 43.2847 58.3128 43.2847 62.2945C43.2847 66.2763 40.0569 69.5042 36.0751 69.5042C35.8278 69.5042 35.5835 69.4917 35.3427 69.4675V69.524ZM31.0707 143.058H5.10547V117.65C7.43183 115.945 10.3019 114.938 13.4071 114.938C21.1716 114.938 27.4659 121.233 27.4659 128.997C27.4659 129.375 27.451 129.75 27.4217 130.12C28.6356 129.191 30.1536 128.639 31.8006 128.639C35.7824 128.639 39.0102 131.867 39.0102 135.848C39.0102 139.83 35.7824 143.058 31.8006 143.058C31.5542 143.058 31.3107 143.046 31.0707 143.021V143.058ZM66 81.1499C63.6111 79.2751 60.6 78.1572 57.3278 78.1572C49.5633 78.1572 43.269 84.4516 43.269 92.216C43.269 92.5942 43.2839 92.9689 43.3132 93.3395C42.0992 92.4098 40.581 91.8574 38.9338 91.8574C34.952 91.8574 31.7241 95.0853 31.7241 99.0671C31.7241 103.049 34.952 106.277 38.9338 106.277C39.181 106.277 39.4254 106.264 39.6663 106.24V106.281H66V81.1499Z" fill="black"/>
<rect x="5" y="15" width="61" height="128" fill="#D9D9D9"/>
</g>
<defs>
<clipPath id="clip0_2137_33312">
<rect width="832" height="166" fill="white"/>
</clipPath>
</defs>
</svg>
