<svg width="332" height="83" viewBox="0 0 332 83" fill="none" xmlns="http://www.w3.org/2000/svg">
<g filter="url(#filter0_f_574_561)">
<path d="M58.9219 68.0029L46.8359 74.8896V60.9814L58.9219 54.1621V68.0029Z" fill="#FF8DA1" stroke="black" stroke-width="0.5"/>
<path d="M58.667 53.7354L46.584 60.6875L34.502 53.8027L46.5166 46.8506L58.667 53.7354Z" fill="#FF8DA1" stroke="black" stroke-width="0.5"/>
<path d="M46.3359 61.1211V74.8887L34.3193 68.0029L34.252 54.2354L46.3359 61.1211Z" fill="#FF8DA1" stroke="black" stroke-width="0.5"/>
</g>
<g filter="url(#filter1_f_574_561)">
<path d="M84.0703 60.9834L65.6914 71.4561V50.3057L84.0703 39.9355V60.9834Z" fill="#FF8DA1" stroke="black" stroke-width="0.5"/>
<path d="M83.8154 39.5088L65.4395 50.082L47.0645 39.6113L65.3369 29.0381L83.8154 39.5088Z" fill="#FF8DA1" stroke="black" stroke-width="0.5"/>
<path d="M65.1914 50.5156V71.4551L46.917 60.9834L46.8145 40.0439L65.1914 50.5156Z" fill="#FF8DA1" stroke="black" stroke-width="0.5"/>
</g>
<path d="M115.203 49.8809L91.0312 63.6553V35.8389L115.203 22.2002V49.8809Z" fill="#FF8DA1" stroke="black"/>
<path d="M114.695 21.3467L90.5293 35.252L66.3623 21.4805L90.3926 7.5752L114.695 21.3467Z" fill="#FF8DA1" stroke="black"/>
<path d="M90.0312 36.1182V63.6523L65.998 49.8809L65.8633 22.3467L90.0312 36.1182Z" fill="#FF8DA1" stroke="black"/>
<path opacity="0.33" d="M90.4375 35.7813L90.4375 7" stroke="white" stroke-width="0.375"/>
<path opacity="0.33" d="M90.438 35.7812L115.363 50.1719" stroke="white" stroke-width="0.375"/>
<path opacity="0.33" d="M90.4409 35.7813L65.5156 50.1719" stroke="white" stroke-width="0.375"/>
<path d="M152.568 47.792V34.2377H155.071V47.792H152.568ZM148.753 48.0625V45.844H158.885V48.0625H148.753ZM148.753 36.4562V34.2377H154.056V36.4562H148.753ZM153.813 31.8569C153.38 31.8569 153.015 31.7081 152.717 31.4105C152.419 31.1039 152.271 30.7341 152.271 30.3013C152.271 29.8594 152.419 29.4896 152.717 29.192C153.015 28.8854 153.38 28.7321 153.813 28.7321C154.264 28.7321 154.633 28.8854 154.922 29.192C155.219 29.4896 155.368 29.8594 155.368 30.3013C155.368 30.7341 155.219 31.1039 154.922 31.4105C154.633 31.7081 154.264 31.8569 153.813 31.8569ZM167.21 48.0625V34.2377H169.713V37.0513L169.348 36.4291C169.492 35.9602 169.758 35.5363 170.146 35.1575C170.542 34.7788 171.029 34.4767 171.607 34.2512C172.193 34.0258 172.838 33.913 173.541 33.913C174.587 33.913 175.493 34.1159 176.26 34.5218C177.027 34.9186 177.617 35.5679 178.032 36.4697C178.447 37.3625 178.654 38.5439 178.654 40.0138V48.0625H176.152V39.9462C176.152 38.5754 175.85 37.615 175.245 37.0649C174.641 36.5148 173.902 36.2397 173.027 36.2397C172.405 36.2397 171.841 36.3524 171.336 36.5779C170.84 36.7943 170.443 37.1686 170.146 37.7007C169.857 38.2327 169.713 38.9632 169.713 39.8921V48.0625H167.21ZM193.553 48.3872C192.246 48.3872 191.308 48.0715 190.74 47.4402C190.172 46.8 189.888 45.9387 189.888 44.8566V36.4562H186.803V34.2377H189.888V29.7467L192.39 28.5292V34.2377H197.057V36.4562H192.39V44.1531C192.39 44.5409 192.444 44.8836 192.552 45.1812C192.661 45.4788 192.859 45.7088 193.148 45.8711C193.436 46.0334 193.847 46.1146 194.379 46.1146C194.974 46.1146 195.461 46.0379 195.84 45.8846C196.227 45.7313 196.575 45.5645 196.881 45.3841L196.584 47.7649C196.214 47.9543 195.794 48.1031 195.326 48.2113C194.866 48.3285 194.275 48.3872 193.553 48.3872ZM211.672 48.3872C210.355 48.3872 209.21 48.0986 208.236 47.5214C207.262 46.9443 206.505 46.1191 205.964 45.0459C205.432 43.9638 205.166 42.6697 205.166 41.1636C205.166 39.6666 205.432 38.377 205.964 37.2948C206.505 36.2127 207.262 35.3785 208.236 34.7923C209.21 34.2061 210.355 33.913 211.672 33.913C212.998 33.913 214.148 34.2016 215.122 34.7788C216.095 35.3559 216.849 36.1856 217.381 37.2678C217.913 38.35 218.179 39.6441 218.179 41.1501C218.179 42.6471 217.913 43.9367 217.381 45.0189C216.849 46.1011 216.095 46.9352 215.122 47.5214C214.148 48.0986 212.998 48.3872 211.672 48.3872ZM211.672 46.0469C212.944 46.0469 213.918 45.6096 214.594 44.7348C215.279 43.851 215.622 42.6561 215.622 41.1501C215.622 39.6441 215.288 38.4492 214.621 37.5654C213.963 36.6816 212.98 36.2397 211.672 36.2397C210.392 36.2397 209.413 36.6726 208.737 37.5383C208.06 38.4041 207.722 39.6125 207.722 41.1636C207.722 42.6606 208.06 43.851 208.737 44.7348C209.413 45.6096 210.392 46.0469 211.672 46.0469ZM229.967 48.0625L224.65 34.2377H227.288L230.656 43.3686C230.738 43.576 230.814 43.7969 230.886 44.0314C230.959 44.2568 231.031 44.5139 231.103 44.8024C231.175 44.5139 231.247 44.2568 231.319 44.0314C231.4 43.7969 231.477 43.576 231.549 43.3686L234.863 34.2377H237.461L232.144 48.0625H229.967ZM249.451 47.792V34.2377H251.954V47.792H249.451ZM245.637 48.0625V45.844H255.769V48.0625H245.637ZM245.637 36.4562V34.2377H250.939V36.4562H245.637ZM250.696 31.8569C250.263 31.8569 249.898 31.7081 249.6 31.4105C249.303 31.1039 249.154 30.7341 249.154 30.3013C249.154 29.8594 249.303 29.4896 249.6 29.192C249.898 28.8854 250.263 28.7321 250.696 28.7321C251.147 28.7321 251.517 28.8854 251.805 29.192C252.103 29.4896 252.252 29.8594 252.252 30.3013C252.252 30.7341 252.103 31.1039 251.805 31.4105C251.517 31.7081 251.147 31.8569 250.696 31.8569ZM270.086 48.3872C268.752 48.3872 267.606 48.0715 266.65 47.4402C265.694 46.8 264.959 45.9342 264.445 44.843C263.94 43.7518 263.688 42.5163 263.688 41.1366C263.688 39.6215 263.949 38.3274 264.472 37.2543C265.004 36.1721 265.748 35.3469 266.704 34.7788C267.669 34.2016 268.797 33.913 270.086 33.913C271.15 33.913 272.124 34.1475 273.008 34.6165C273.892 35.0854 274.595 35.8068 275.118 36.7808C275.65 37.7548 275.916 39.0038 275.916 40.5278C275.916 40.7172 275.912 40.9517 275.903 41.2313C275.903 41.5108 275.88 41.8129 275.835 42.1376H265.636V39.9597H273.427C273.4 38.9857 273.211 38.2192 272.859 37.6601C272.517 37.1009 272.093 36.7087 271.588 36.4832C271.083 36.2487 270.582 36.1315 270.086 36.1315C268.733 36.1315 267.741 36.5599 267.11 37.4166C266.479 38.2733 266.163 39.4276 266.163 40.8796C266.163 42.4848 266.515 43.7608 267.218 44.7078C267.922 45.6547 268.896 46.1281 270.14 46.1281C270.717 46.1281 271.268 46.0334 271.791 45.844C272.323 45.6456 272.832 45.3345 273.319 44.9107L274.767 46.5339C274.198 47.066 273.513 47.5079 272.71 47.8596C271.917 48.2113 271.042 48.3872 270.086 48.3872ZM284.931 48.0625L281.455 34.2377H283.836L285.838 42.7463C285.883 42.9177 285.923 43.107 285.959 43.3144C286.004 43.5128 286.04 43.7203 286.068 43.9367C286.113 43.6842 286.149 43.4678 286.176 43.2874C286.212 43.098 286.252 42.8996 286.297 42.6922L288.191 34.2377H290.166L292.074 42.7193C292.128 42.9086 292.173 43.1115 292.209 43.328C292.254 43.5354 292.295 43.7654 292.331 44.0179C292.367 43.7744 292.403 43.5534 292.439 43.355C292.484 43.1476 292.529 42.9357 292.574 42.7193L294.509 34.2377H296.903L293.413 48.0625H291.343L289.476 39.8921C289.431 39.6937 289.382 39.4502 289.328 39.1616C289.273 38.873 289.219 38.598 289.165 38.3364C289.12 38.607 289.066 38.882 289.003 39.1616C288.949 39.4412 288.899 39.6756 288.854 39.865L287.041 48.0625H284.931Z" fill="url(#paint0_linear_574_561)"/>
<g filter="url(#filter2_f_574_561)">
<path d="M152.465 47.792V34.2377H154.967V47.792H152.465ZM148.65 48.0625V45.844H158.782V48.0625H148.65ZM148.65 36.4562V34.2377H153.953V36.4562H148.65ZM153.709 31.8569C153.276 31.8569 152.911 31.7081 152.613 31.4105C152.316 31.1039 152.167 30.7341 152.167 30.3013C152.167 29.8594 152.316 29.4896 152.613 29.192C152.911 28.8854 153.276 28.7321 153.709 28.7321C154.16 28.7321 154.53 28.8854 154.818 29.192C155.116 29.4896 155.265 29.8594 155.265 30.3013C155.265 30.7341 155.116 31.1039 154.818 31.4105C154.53 31.7081 154.16 31.8569 153.709 31.8569ZM167.107 48.0625V34.2377H169.609V37.0513L169.244 36.4291C169.388 35.9602 169.654 35.5363 170.042 35.1575C170.439 34.7788 170.926 34.4767 171.503 34.2512C172.089 34.0258 172.734 33.913 173.437 33.913C174.484 33.913 175.39 34.1159 176.156 34.5218C176.923 34.9186 177.514 35.5679 177.929 36.4697C178.343 37.3625 178.551 38.5439 178.551 40.0138V48.0625H176.048V39.9462C176.048 38.5754 175.746 37.615 175.142 37.0649C174.538 36.5148 173.798 36.2397 172.923 36.2397C172.301 36.2397 171.738 36.3524 171.233 36.5779C170.737 36.7943 170.34 37.1686 170.042 37.7007C169.754 38.2327 169.609 38.9632 169.609 39.8921V48.0625H167.107ZM193.45 48.3872C192.142 48.3872 191.204 48.0715 190.636 47.4402C190.068 46.8 189.784 45.9387 189.784 44.8566V36.4562H186.7V34.2377H189.784V29.7467L192.287 28.5292V34.2377H196.953V36.4562H192.287V44.1531C192.287 44.5409 192.341 44.8836 192.449 45.1812C192.557 45.4788 192.756 45.7088 193.044 45.8711C193.333 46.0334 193.743 46.1146 194.275 46.1146C194.87 46.1146 195.357 46.0379 195.736 45.8846C196.124 45.7313 196.471 45.5645 196.778 45.3841L196.48 47.7649C196.11 47.9543 195.691 48.1031 195.222 48.2113C194.762 48.3285 194.171 48.3872 193.45 48.3872ZM211.569 48.3872C210.252 48.3872 209.107 48.0986 208.133 47.5214C207.159 46.9443 206.401 46.1191 205.86 45.0459C205.328 43.9638 205.062 42.6697 205.062 41.1636C205.062 39.6666 205.328 38.377 205.86 37.2948C206.401 36.2127 207.159 35.3785 208.133 34.7923C209.107 34.2061 210.252 33.913 211.569 33.913C212.894 33.913 214.044 34.2016 215.018 34.7788C215.992 35.3559 216.745 36.1856 217.277 37.2678C217.809 38.35 218.075 39.6441 218.075 41.1501C218.075 42.6471 217.809 43.9367 217.277 45.0189C216.745 46.1011 215.992 46.9352 215.018 47.5214C214.044 48.0986 212.894 48.3872 211.569 48.3872ZM211.569 46.0469C212.84 46.0469 213.814 45.6096 214.49 44.7348C215.176 43.851 215.519 42.6561 215.519 41.1501C215.519 39.6441 215.185 38.4492 214.518 37.5654C213.859 36.6816 212.876 36.2397 211.569 36.2397C210.288 36.2397 209.31 36.6726 208.633 37.5383C207.957 38.4041 207.619 39.6125 207.619 41.1636C207.619 42.6606 207.957 43.851 208.633 44.7348C209.31 45.6096 210.288 46.0469 211.569 46.0469ZM229.863 48.0625L224.547 34.2377H227.185L230.553 43.3686C230.634 43.576 230.711 43.7969 230.783 44.0314C230.855 44.2568 230.927 44.5139 230.999 44.8024C231.072 44.5139 231.144 44.2568 231.216 44.0314C231.297 43.7969 231.374 43.576 231.446 43.3686L234.76 34.2377H237.357L232.041 48.0625H229.863ZM249.348 47.792V34.2377H251.851V47.792H249.348ZM245.533 48.0625V45.844H255.665V48.0625H245.533ZM245.533 36.4562V34.2377H250.836V36.4562H245.533ZM250.592 31.8569C250.16 31.8569 249.794 31.7081 249.497 31.4105C249.199 31.1039 249.05 30.7341 249.05 30.3013C249.05 29.8594 249.199 29.4896 249.497 29.192C249.794 28.8854 250.16 28.7321 250.592 28.7321C251.043 28.7321 251.413 28.8854 251.702 29.192C251.999 29.4896 252.148 29.8594 252.148 30.3013C252.148 30.7341 251.999 31.1039 251.702 31.4105C251.413 31.7081 251.043 31.8569 250.592 31.8569ZM269.983 48.3872C268.648 48.3872 267.503 48.0715 266.547 47.4402C265.591 46.8 264.856 45.9342 264.342 44.843C263.837 43.7518 263.584 42.5163 263.584 41.1366C263.584 39.6215 263.846 38.3274 264.369 37.2543C264.901 36.1721 265.645 35.3469 266.601 34.7788C267.566 34.2016 268.693 33.913 269.983 33.913C271.047 33.913 272.021 34.1475 272.905 34.6165C273.788 35.0854 274.492 35.8068 275.015 36.7808C275.547 37.7548 275.813 39.0038 275.813 40.5278C275.813 40.7172 275.808 40.9517 275.799 41.2313C275.799 41.5108 275.777 41.8129 275.732 42.1376H265.532V39.9597H273.324C273.297 38.9857 273.107 38.2192 272.756 37.6601C272.413 37.1009 271.989 36.7087 271.484 36.4832C270.979 36.2487 270.479 36.1315 269.983 36.1315C268.63 36.1315 267.638 36.5599 267.007 37.4166C266.375 38.2733 266.06 39.4276 266.06 40.8796C266.06 42.4848 266.411 43.7608 267.115 44.7078C267.818 45.6547 268.792 46.1281 270.037 46.1281C270.614 46.1281 271.164 46.0334 271.687 45.844C272.219 45.6456 272.729 45.3345 273.216 44.9107L274.663 46.5339C274.095 47.066 273.41 47.5079 272.607 47.8596C271.813 48.2113 270.939 48.3872 269.983 48.3872ZM284.828 48.0625L281.351 34.2377H283.732L285.734 42.7463C285.779 42.9177 285.82 43.107 285.856 43.3144C285.901 43.5128 285.937 43.7203 285.964 43.9367C286.009 43.6842 286.045 43.4678 286.072 43.2874C286.108 43.098 286.149 42.8996 286.194 42.6922L288.088 34.2377H290.063L291.97 42.7193C292.024 42.9086 292.069 43.1115 292.105 43.328C292.15 43.5354 292.191 43.7654 292.227 44.0179C292.263 43.7744 292.299 43.5534 292.335 43.355C292.38 43.1476 292.426 42.9357 292.471 42.7193L294.405 34.2377H296.799L293.309 48.0625H291.24L289.373 39.8921C289.328 39.6937 289.278 39.4502 289.224 39.1616C289.17 38.873 289.116 38.598 289.062 38.3364C289.017 38.607 288.963 38.882 288.899 39.1616C288.845 39.4412 288.796 39.6756 288.751 39.865L286.938 48.0625H284.828Z" fill="url(#paint1_linear_574_561)"/>
</g>
<defs>
<filter id="filter0_f_574_561" x="31" y="43.5625" width="31.1719" height="34.7578" filterUnits="userSpaceOnUse" color-interpolation-filters="sRGB">
<feFlood flood-opacity="0" result="BackgroundImageFix"/>
<feBlend mode="normal" in="SourceGraphic" in2="BackgroundImageFix" result="shape"/>
<feGaussianBlur stdDeviation="1.5" result="effect1_foregroundBlur_574_561"/>
</filter>
<filter id="filter1_f_574_561" x="44.6875" y="26.875" width="41.5078" height="46.8867" filterUnits="userSpaceOnUse" color-interpolation-filters="sRGB">
<feFlood flood-opacity="0" result="BackgroundImageFix"/>
<feBlend mode="normal" in="SourceGraphic" in2="BackgroundImageFix" result="shape"/>
<feGaussianBlur stdDeviation="0.9375" result="effect1_foregroundBlur_574_561"/>
</filter>
<filter id="filter2_f_574_561" x="144.65" y="24.5293" width="156.149" height="27.8574" filterUnits="userSpaceOnUse" color-interpolation-filters="sRGB">
<feFlood flood-opacity="0" result="BackgroundImageFix"/>
<feBlend mode="normal" in="SourceGraphic" in2="BackgroundImageFix" result="shape"/>
<feGaussianBlur stdDeviation="1.90226" result="effect1_foregroundBlur_574_561"/>
</filter>
<linearGradient id="paint0_linear_574_561" x1="144.863" y1="41.0625" x2="297.863" y2="41.0625" gradientUnits="userSpaceOnUse">
<stop stop-color="#FF8DA1"/>
<stop offset="1"/>
</linearGradient>
<linearGradient id="paint1_linear_574_561" x1="144.76" y1="41.0625" x2="297.76" y2="41.0625" gradientUnits="userSpaceOnUse">
<stop/>
<stop offset="1" stop-color="#FF8DA1"/>
</linearGradient>
</defs>
</svg>
