<svg width="332" height="83" viewBox="0 0 332 83" fill="none" xmlns="http://www.w3.org/2000/svg">
<g filter="url(#filter0_f_572_43)">
<path d="M58.8906 66.1416L46.3047 73.3135V58.8291L58.8906 51.7275V66.1416Z" fill="url(#paint0_linear_572_43)"/>
<path d="M46.2344 44.5557L33.7188 51.7979L46.3047 58.9697L58.8906 51.7275L46.2344 44.5557Z" fill="white"/>
<path d="M33.7891 66.1416L46.3047 73.3135V58.9697L33.7188 51.7979L33.7891 66.1416Z" fill="url(#paint1_linear_572_43)"/>
</g>
<g filter="url(#filter1_f_572_43)">
<path d="M84.0391 58.9346L65.1602 69.6924V47.9658L84.0391 37.3135V58.9346Z" fill="url(#paint2_linear_572_43)"/>
<path d="M65.0547 26.5557L46.2812 37.4189L65.1602 48.1768L84.0391 37.3135L65.0547 26.5557Z" fill="white"/>
<path d="M46.3867 58.9346L65.1602 69.6924V48.1768L46.2812 37.4189L46.3867 58.9346Z" fill="url(#paint3_linear_572_43)"/>
</g>
<path d="M115.422 48.165L90.25 62.5088V33.54L115.422 19.3369V48.165Z" fill="url(#paint4_linear_572_43)"/>
<path d="M90.1094 4.99316L65.0781 19.4775L90.25 33.8213L115.422 19.3369L90.1094 4.99316Z" fill="white"/>
<path d="M65.2188 48.165L90.25 62.5088V33.8213L65.0781 19.4775L65.2188 48.165Z" fill="url(#paint5_linear_572_43)"/>
<path d="M152.287 45.7851V32.2309H154.789V45.7851H152.287ZM148.472 46.0557V43.8372H158.604V46.0557H148.472ZM148.472 34.4493V32.2309H153.775V34.4493H148.472ZM153.531 29.8501C153.098 29.8501 152.733 29.7013 152.436 29.4037C152.138 29.097 151.989 28.7273 151.989 28.2944C151.989 27.8525 152.138 27.4828 152.436 27.1852C152.733 26.8786 153.098 26.7253 153.531 26.7253C153.982 26.7253 154.352 26.8786 154.641 27.1852C154.938 27.4828 155.087 27.8525 155.087 28.2944C155.087 28.7273 154.938 29.097 154.641 29.4037C154.352 29.7013 153.982 29.8501 153.531 29.8501ZM166.929 46.0557V32.2309H169.432V35.0445L169.066 34.4223C169.211 33.9533 169.477 33.5295 169.864 33.1507C170.261 32.7719 170.748 32.4698 171.325 32.2444C171.912 32.0189 172.556 31.9062 173.26 31.9062C174.306 31.9062 175.212 32.1091 175.979 32.5149C176.745 32.9117 177.336 33.561 177.751 34.4628C178.166 35.3556 178.373 36.537 178.373 38.007V46.0557H175.87V37.9393C175.87 36.5686 175.568 35.6081 174.964 35.058C174.36 34.5079 173.62 34.2329 172.746 34.2329C172.123 34.2329 171.56 34.3456 171.055 34.5711C170.559 34.7875 170.162 35.1617 169.864 35.6938C169.576 36.2259 169.432 36.9564 169.432 37.8852V46.0557H166.929ZM193.272 46.3803C191.965 46.3803 191.027 46.0647 190.459 45.4334C189.89 44.7931 189.606 43.9319 189.606 42.8497V34.4493H186.522V32.2309H189.606V27.7398L192.109 26.5224V32.2309H196.776V34.4493H192.109V42.1463C192.109 42.5341 192.163 42.8768 192.271 43.1744C192.379 43.472 192.578 43.7019 192.866 43.8643C193.155 44.0266 193.565 44.1077 194.097 44.1077C194.693 44.1077 195.18 44.0311 195.558 43.8778C195.946 43.7245 196.293 43.5576 196.6 43.3773L196.302 45.7581C195.933 45.9474 195.513 46.0962 195.044 46.2045C194.584 46.3217 193.994 46.3803 193.272 46.3803ZM211.391 46.3803C210.074 46.3803 208.929 46.0917 207.955 45.5146C206.981 44.9374 206.223 44.1123 205.682 43.0391C205.15 41.9569 204.884 40.6628 204.884 39.1568C204.884 37.6598 205.15 36.3702 205.682 35.288C206.223 34.2058 206.981 33.3716 207.955 32.7855C208.929 32.1993 210.074 31.9062 211.391 31.9062C212.717 31.9062 213.866 32.1948 214.84 32.7719C215.814 33.3491 216.567 34.1788 217.099 35.2609C217.631 36.3431 217.897 37.6372 217.897 39.1433C217.897 40.6403 217.631 41.9299 217.099 43.012C216.567 44.0942 215.814 44.9284 214.84 45.5146C213.866 46.0917 212.717 46.3803 211.391 46.3803ZM211.391 44.0401C212.662 44.0401 213.636 43.6027 214.313 42.728C214.998 41.8442 215.341 40.6493 215.341 39.1433C215.341 37.6372 215.007 36.4423 214.34 35.5585C213.681 34.6748 212.698 34.2329 211.391 34.2329C210.11 34.2329 209.132 34.6658 208.455 35.5315C207.779 36.3972 207.441 37.6057 207.441 39.1568C207.441 40.6538 207.779 41.8442 208.455 42.728C209.132 43.6027 210.11 44.0401 211.391 44.0401ZM229.685 46.0557L224.369 32.2309H227.007L230.375 41.3617C230.456 41.5691 230.533 41.7901 230.605 42.0246C230.677 42.25 230.749 42.507 230.822 42.7956C230.894 42.507 230.966 42.25 231.038 42.0246C231.119 41.7901 231.196 41.5691 231.268 41.3617L234.582 32.2309H237.179L231.863 46.0557H229.685ZM249.17 45.7851V32.2309H251.673V45.7851H249.17ZM245.356 46.0557V43.8372H255.487V46.0557H245.356ZM245.356 34.4493V32.2309H250.658V34.4493H245.356ZM250.415 29.8501C249.982 29.8501 249.617 29.7013 249.319 29.4037C249.021 29.097 248.873 28.7273 248.873 28.2944C248.873 27.8525 249.021 27.4828 249.319 27.1852C249.617 26.8786 249.982 26.7253 250.415 26.7253C250.866 26.7253 251.235 26.8786 251.524 27.1852C251.822 27.4828 251.97 27.8525 251.97 28.2944C251.97 28.7273 251.822 29.097 251.524 29.4037C251.235 29.7013 250.866 29.8501 250.415 29.8501ZM269.805 46.3803C268.47 46.3803 267.325 46.0647 266.369 45.4334C265.413 44.7931 264.678 43.9274 264.164 42.8362C263.659 41.745 263.407 40.5095 263.407 39.1297C263.407 37.6147 263.668 36.3206 264.191 35.2474C264.723 34.1652 265.467 33.3401 266.423 32.7719C267.388 32.1948 268.515 31.9062 269.805 31.9062C270.869 31.9062 271.843 32.1407 272.727 32.6096C273.611 33.0786 274.314 33.8 274.837 34.774C275.369 35.7479 275.635 36.9969 275.635 38.521C275.635 38.7104 275.631 38.9449 275.622 39.2244C275.622 39.504 275.599 39.8061 275.554 40.1307H265.354V37.9529H273.146C273.119 36.9789 272.93 36.2124 272.578 35.6532C272.235 35.0941 271.811 34.7018 271.306 34.4764C270.801 34.2419 270.301 34.1247 269.805 34.1247C268.452 34.1247 267.46 34.553 266.829 35.4097C266.198 36.2665 265.882 37.4208 265.882 38.8727C265.882 40.4779 266.234 41.754 266.937 42.7009C267.641 43.6478 268.615 44.1213 269.859 44.1213C270.436 44.1213 270.986 44.0266 271.509 43.8372C272.041 43.6388 272.551 43.3277 273.038 42.9038L274.485 44.5271C273.917 45.0592 273.232 45.501 272.429 45.8528C271.636 46.2045 270.761 46.3803 269.805 46.3803ZM284.65 46.0557L281.173 32.2309H283.554L285.556 40.7395C285.601 40.9108 285.642 41.1002 285.678 41.3076C285.723 41.506 285.759 41.7134 285.786 41.9299C285.831 41.6774 285.867 41.4609 285.894 41.2806C285.931 41.0912 285.971 40.8928 286.016 40.6854L287.91 32.2309H289.885L291.792 40.7124C291.846 40.9018 291.892 41.1047 291.928 41.3211C291.973 41.5286 292.013 41.7585 292.049 42.011C292.085 41.7675 292.122 41.5466 292.158 41.3482C292.203 41.1408 292.248 40.9289 292.293 40.7124L294.227 32.2309H296.622L293.132 46.0557H291.062L289.195 37.8852C289.15 37.6868 289.1 37.4433 289.046 37.1548C288.992 36.8662 288.938 36.5911 288.884 36.3296C288.839 36.6001 288.785 36.8752 288.722 37.1548C288.668 37.4343 288.618 37.6688 288.573 37.8582L286.76 46.0557H284.65Z" fill="url(#paint6_linear_572_43)"/>
<g filter="url(#filter2_f_572_43)">
<path d="M152.183 45.7851V32.2309H154.686V45.7851H152.183ZM148.369 46.0557V43.8372H158.501V46.0557H148.369ZM148.369 34.4493V32.2309H153.671V34.4493H148.369ZM153.428 29.8501C152.995 29.8501 152.63 29.7013 152.332 29.4037C152.035 29.097 151.886 28.7273 151.886 28.2944C151.886 27.8525 152.035 27.4828 152.332 27.1852C152.63 26.8786 152.995 26.7253 153.428 26.7253C153.879 26.7253 154.248 26.8786 154.537 27.1852C154.835 27.4828 154.983 27.8525 154.983 28.2944C154.983 28.7273 154.835 29.097 154.537 29.4037C154.248 29.7013 153.879 29.8501 153.428 29.8501ZM166.825 46.0557V32.2309H169.328V35.0445L168.963 34.4223C169.107 33.9533 169.373 33.5295 169.761 33.1507C170.158 32.7719 170.645 32.4698 171.222 32.2444C171.808 32.0189 172.453 31.9062 173.156 31.9062C174.202 31.9062 175.109 32.1091 175.875 32.5149C176.642 32.9117 177.232 33.561 177.647 34.4628C178.062 35.3556 178.27 36.537 178.27 38.007V46.0557H175.767V37.9393C175.767 36.5686 175.465 35.6081 174.861 35.058C174.256 34.5079 173.517 34.2329 172.642 34.2329C172.02 34.2329 171.456 34.3456 170.951 34.5711C170.455 34.7875 170.058 35.1617 169.761 35.6938C169.472 36.2259 169.328 36.9564 169.328 37.8852V46.0557H166.825ZM193.169 46.3803C191.861 46.3803 190.923 46.0647 190.355 45.4334C189.787 44.7931 189.503 43.9319 189.503 42.8497V34.4493H186.419V32.2309H189.503V27.7398L192.005 26.5224V32.2309H196.672V34.4493H192.005V42.1463C192.005 42.5341 192.059 42.8768 192.168 43.1744C192.276 43.472 192.474 43.7019 192.763 43.8643C193.051 44.0266 193.462 44.1077 193.994 44.1077C194.589 44.1077 195.076 44.0311 195.455 43.8778C195.843 43.7245 196.19 43.5576 196.496 43.3773L196.199 45.7581C195.829 45.9474 195.41 46.0962 194.941 46.2045C194.481 46.3217 193.89 46.3803 193.169 46.3803ZM211.287 46.3803C209.971 46.3803 208.825 46.0917 207.851 45.5146C206.877 44.9374 206.12 44.1123 205.579 43.0391C205.047 41.9569 204.781 40.6628 204.781 39.1568C204.781 37.6598 205.047 36.3702 205.579 35.288C206.12 34.2058 206.877 33.3716 207.851 32.7855C208.825 32.1993 209.971 31.9062 211.287 31.9062C212.613 31.9062 213.763 32.1948 214.737 32.7719C215.711 33.3491 216.464 34.1788 216.996 35.2609C217.528 36.3431 217.794 37.6372 217.794 39.1433C217.794 40.6403 217.528 41.9299 216.996 43.012C216.464 44.0942 215.711 44.9284 214.737 45.5146C213.763 46.0917 212.613 46.3803 211.287 46.3803ZM211.287 44.0401C212.559 44.0401 213.533 43.6027 214.209 42.728C214.895 41.8442 215.237 40.6493 215.237 39.1433C215.237 37.6372 214.904 36.4423 214.236 35.5585C213.578 34.6748 212.595 34.2329 211.287 34.2329C210.007 34.2329 209.028 34.6658 208.352 35.5315C207.676 36.3972 207.337 37.6057 207.337 39.1568C207.337 40.6538 207.676 41.8442 208.352 42.728C209.028 43.6027 210.007 44.0401 211.287 44.0401ZM229.582 46.0557L224.266 32.2309H226.903L230.272 41.3617C230.353 41.5691 230.43 41.7901 230.502 42.0246C230.574 42.25 230.646 42.507 230.718 42.7956C230.79 42.507 230.862 42.25 230.935 42.0246C231.016 41.7901 231.092 41.5691 231.165 41.3617L234.479 32.2309H237.076L231.76 46.0557H229.582ZM249.067 45.7851V32.2309H251.569V45.7851H249.067ZM245.252 46.0557V43.8372H255.384V46.0557H245.252ZM245.252 34.4493V32.2309H250.555V34.4493H245.252ZM250.311 29.8501C249.878 29.8501 249.513 29.7013 249.216 29.4037C248.918 29.097 248.769 28.7273 248.769 28.2944C248.769 27.8525 248.918 27.4828 249.216 27.1852C249.513 26.8786 249.878 26.7253 250.311 26.7253C250.762 26.7253 251.132 26.8786 251.42 27.1852C251.718 27.4828 251.867 27.8525 251.867 28.2944C251.867 28.7273 251.718 29.097 251.42 29.4037C251.132 29.7013 250.762 29.8501 250.311 29.8501ZM269.701 46.3803C268.367 46.3803 267.221 46.0647 266.266 45.4334C265.31 44.7931 264.575 43.9274 264.061 42.8362C263.556 41.745 263.303 40.5095 263.303 39.1297C263.303 37.6147 263.565 36.3206 264.088 35.2474C264.62 34.1652 265.364 33.3401 266.32 32.7719C267.285 32.1948 268.412 31.9062 269.701 31.9062C270.766 31.9062 271.74 32.1407 272.623 32.6096C273.507 33.0786 274.21 33.8 274.734 34.774C275.266 35.7479 275.532 36.9969 275.532 38.521C275.532 38.7104 275.527 38.9449 275.518 39.2244C275.518 39.504 275.496 39.8061 275.45 40.1307H265.251V37.9529H273.043C273.016 36.9789 272.826 36.2124 272.475 35.6532C272.132 35.0941 271.708 34.7018 271.203 34.4764C270.698 34.2419 270.197 34.1247 269.701 34.1247C268.349 34.1247 267.357 34.553 266.725 35.4097C266.094 36.2665 265.779 37.4208 265.779 38.8727C265.779 40.4779 266.13 41.754 266.834 42.7009C267.537 43.6478 268.511 44.1213 269.756 44.1213C270.333 44.1213 270.883 44.0266 271.406 43.8372C271.938 43.6388 272.447 43.3277 272.934 42.9038L274.382 44.5271C273.814 45.0592 273.128 45.501 272.326 45.8528C271.532 46.2045 270.657 46.3803 269.701 46.3803ZM284.546 46.0557L281.07 32.2309H283.451L285.453 40.7395C285.498 40.9108 285.538 41.1002 285.575 41.3076C285.62 41.506 285.656 41.7134 285.683 41.9299C285.728 41.6774 285.764 41.4609 285.791 41.2806C285.827 41.0912 285.868 40.8928 285.913 40.6854L287.807 32.2309H289.782L291.689 40.7124C291.743 40.9018 291.788 41.1047 291.824 41.3211C291.869 41.5286 291.91 41.7585 291.946 42.011C291.982 41.7675 292.018 41.5466 292.054 41.3482C292.099 41.1408 292.144 40.9289 292.189 40.7124L294.124 32.2309H296.518L293.028 46.0557H290.958L289.092 37.8852C289.047 37.6868 288.997 37.4433 288.943 37.1548C288.889 36.8662 288.835 36.5911 288.78 36.3296C288.735 36.6001 288.681 36.8752 288.618 37.1548C288.564 37.4343 288.514 37.6688 288.469 37.8582L286.657 46.0557H284.546Z" fill="url(#paint7_linear_572_43)"/>
</g>
<defs>
<filter id="filter0_f_572_43" x="29.2188" y="40.0557" width="34.1719" height="37.7578" filterUnits="userSpaceOnUse" color-interpolation-filters="sRGB">
<feFlood flood-opacity="0" result="BackgroundImageFix"/>
<feBlend mode="normal" in="SourceGraphic" in2="BackgroundImageFix" result="shape"/>
<feGaussianBlur stdDeviation="2.25" result="effect1_foregroundBlur_572_43"/>
</filter>
<filter id="filter1_f_572_43" x="44.1569" y="24.4313" width="42.0066" height="47.3855" filterUnits="userSpaceOnUse" color-interpolation-filters="sRGB">
<feFlood flood-opacity="0" result="BackgroundImageFix"/>
<feBlend mode="normal" in="SourceGraphic" in2="BackgroundImageFix" result="shape"/>
<feGaussianBlur stdDeviation="1.06219" result="effect1_foregroundBlur_572_43"/>
</filter>
<filter id="filter2_f_572_43" x="144.369" y="22.5225" width="156.149" height="27.8574" filterUnits="userSpaceOnUse" color-interpolation-filters="sRGB">
<feFlood flood-opacity="0" result="BackgroundImageFix"/>
<feBlend mode="normal" in="SourceGraphic" in2="BackgroundImageFix" result="shape"/>
<feGaussianBlur stdDeviation="1.90226" result="effect1_foregroundBlur_572_43"/>
</filter>
<linearGradient id="paint0_linear_572_43" x1="52.5977" y1="51.7275" x2="52.5977" y2="73.3135" gradientUnits="userSpaceOnUse">
<stop stop-color="#7A7A7A"/>
<stop offset="1" stop-color="#7A7A7A"/>
</linearGradient>
<linearGradient id="paint1_linear_572_43" x1="40.0117" y1="51.7979" x2="40.0117" y2="73.3135" gradientUnits="userSpaceOnUse">
<stop stop-color="#FAFAFA"/>
<stop offset="1" stop-color="#AFAFAF"/>
</linearGradient>
<linearGradient id="paint2_linear_572_43" x1="74.5996" y1="37.3135" x2="74.5996" y2="69.6924" gradientUnits="userSpaceOnUse">
<stop stop-color="#7A7A7A"/>
<stop offset="1" stop-color="#7A7A7A"/>
</linearGradient>
<linearGradient id="paint3_linear_572_43" x1="55.7207" y1="37.4189" x2="55.7207" y2="69.6924" gradientUnits="userSpaceOnUse">
<stop stop-color="#FAFAFA"/>
<stop offset="1" stop-color="#AFAFAF"/>
</linearGradient>
<linearGradient id="paint4_linear_572_43" x1="102.836" y1="19.3369" x2="102.836" y2="62.5088" gradientUnits="userSpaceOnUse">
<stop stop-color="#7A7A7A"/>
<stop offset="1" stop-color="#7A7A7A"/>
</linearGradient>
<linearGradient id="paint5_linear_572_43" x1="77.6641" y1="19.4775" x2="77.6641" y2="62.5088" gradientUnits="userSpaceOnUse">
<stop stop-color="#FAFAFA"/>
<stop offset="1" stop-color="#AFAFAF"/>
</linearGradient>
<linearGradient id="paint6_linear_572_43" x1="144.582" y1="39.0557" x2="297.582" y2="39.0557" gradientUnits="userSpaceOnUse">
<stop stop-opacity="0.33"/>
<stop offset="1"/>
</linearGradient>
<linearGradient id="paint7_linear_572_43" x1="144.479" y1="39.0557" x2="297.479" y2="39.0557" gradientUnits="userSpaceOnUse">
<stop stop-opacity="0.33"/>
<stop offset="1"/>
</linearGradient>
</defs>
</svg>
