<svg width="332" height="83" viewBox="0 0 332 83" fill="none" xmlns="http://www.w3.org/2000/svg">
<path d="M159.094 49.9692V34.0972H161.702V49.9692H159.094ZM154.582 50.4492V48.1292H166.214V50.4492H154.582ZM154.582 36.4172V34.0972H160.534V36.4172H154.582ZM160.39 31.0092C159.931 31.0092 159.542 30.8492 159.222 30.5292C158.902 30.2092 158.742 29.8146 158.742 29.3452C158.742 28.8652 158.902 28.4652 159.222 28.1452C159.542 27.8146 159.931 27.6492 160.39 27.6492C160.881 27.6492 161.281 27.8146 161.59 28.1452C161.899 28.4652 162.054 28.8652 162.054 29.3452C162.054 29.8146 161.899 30.2092 161.59 30.5292C161.281 30.8492 160.881 31.0092 160.39 31.0092ZM175.709 50.4492V34.0972H178.317V37.1532L177.901 36.5932C178.157 35.9959 178.52 35.4839 178.989 35.0572C179.458 34.6306 180.013 34.2999 180.653 34.0652C181.293 33.8306 182.002 33.7132 182.781 33.7132C184.082 33.7132 185.181 33.9639 186.077 34.4652C186.984 34.9666 187.666 35.7666 188.125 36.8652C188.594 37.9532 188.829 39.3826 188.829 41.1532V50.4492H186.237V40.6572C186.237 38.9826 185.864 37.8039 185.117 37.1212C184.381 36.4386 183.469 36.0972 182.381 36.0972C181.592 36.0972 180.888 36.2359 180.269 36.5132C179.661 36.7906 179.181 37.2546 178.829 37.9052C178.488 38.5559 178.317 39.4519 178.317 40.5932V50.4492H175.709ZM206.02 50.8332C204.548 50.8332 203.492 50.4652 202.852 49.7292C202.222 48.9932 201.908 48.0119 201.908 46.7852V36.4172H198.148V34.0972H201.908V28.6252L204.516 27.3452V34.0972H210.004V36.4172H204.516V45.8892C204.516 46.3906 204.569 46.8332 204.676 47.2172C204.793 47.5906 205.022 47.8892 205.364 48.1132C205.705 48.3266 206.212 48.4332 206.884 48.4332C207.662 48.4332 208.281 48.3319 208.74 48.1292C209.198 47.9266 209.593 47.7239 209.924 47.5212L209.62 50.0972C209.193 50.3212 208.708 50.4972 208.164 50.6252C207.63 50.7639 206.916 50.8332 206.02 50.8332ZM226.81 50.8332C225.285 50.8332 223.952 50.4972 222.81 49.8252C221.669 49.1532 220.778 48.1826 220.138 46.9132C219.509 45.6332 219.194 44.0919 219.194 42.2892C219.194 40.5079 219.509 38.9772 220.138 37.6972C220.778 36.4172 221.669 35.4359 222.81 34.7532C223.952 34.0599 225.285 33.7132 226.81 33.7132C228.346 33.7132 229.685 34.0492 230.826 34.7212C231.978 35.3932 232.869 36.3692 233.498 37.6492C234.128 38.9292 234.442 40.4652 234.442 42.2572C234.442 44.0386 234.128 45.5692 233.498 46.8492C232.869 48.1292 231.978 49.1159 230.826 49.8092C229.685 50.4919 228.346 50.8332 226.81 50.8332ZM226.81 48.4332C228.389 48.4332 229.605 47.8839 230.458 46.7852C231.322 45.6866 231.754 44.1772 231.754 42.2572C231.754 40.3479 231.338 38.8439 230.506 37.7452C229.674 36.6466 228.442 36.0972 226.81 36.0972C225.2 36.0972 223.973 36.6359 223.13 37.7132C222.288 38.7799 221.866 40.3052 221.866 42.2892C221.866 44.1879 222.288 45.6866 223.13 46.7852C223.973 47.8839 225.2 48.4332 226.81 48.4332ZM248.065 50.4492L241.825 34.0972H244.529L248.625 45.1212C248.71 45.3666 248.801 45.6226 248.897 45.8892C248.993 46.1559 249.084 46.4492 249.169 46.7692C249.254 46.4492 249.345 46.1559 249.441 45.8892C249.537 45.6226 249.633 45.3666 249.729 45.1212L253.729 34.0972H256.385L250.145 50.4492H248.065ZM270.488 49.9692V34.0972H273.096V49.9692H270.488ZM265.976 50.4492V48.1292H277.608V50.4492H265.976ZM265.976 36.4172V34.0972H271.928V36.4172H265.976ZM271.784 31.0092C271.325 31.0092 270.936 30.8492 270.616 30.5292C270.296 30.2092 270.136 29.8146 270.136 29.3452C270.136 28.8652 270.296 28.4652 270.616 28.1452C270.936 27.8146 271.325 27.6492 271.784 27.6492C272.275 27.6492 272.675 27.8146 272.984 28.1452C273.293 28.4652 273.448 28.8652 273.448 29.3452C273.448 29.8146 273.293 30.2092 272.984 30.5292C272.675 30.8492 272.275 31.0092 271.784 31.0092ZM293.983 50.8332C292.415 50.8332 291.071 50.4492 289.951 49.6812C288.841 48.9132 287.993 47.8786 287.407 46.5772C286.82 45.2759 286.527 43.8359 286.527 42.2572C286.527 40.4546 286.836 38.9186 287.455 37.6492C288.073 36.3692 288.937 35.3932 290.047 34.7212C291.167 34.0492 292.479 33.7132 293.983 33.7132C295.209 33.7132 296.335 33.9906 297.359 34.5452C298.393 35.0999 299.22 35.9586 299.839 37.1212C300.457 38.2732 300.767 39.7559 300.767 41.5692C300.767 41.7719 300.761 42.0226 300.751 42.3212C300.751 42.6092 300.729 42.9399 300.687 43.3132H288.575V41.0092H298.159C298.137 39.7079 297.903 38.6999 297.455 37.9852C297.017 37.2599 296.479 36.7532 295.839 36.4652C295.199 36.1772 294.58 36.0332 293.983 36.0332C292.319 36.0332 291.097 36.5612 290.319 37.6172C289.54 38.6626 289.151 40.0652 289.151 41.8252C289.151 43.8732 289.583 45.4892 290.447 46.6732C291.311 47.8572 292.516 48.4492 294.063 48.4492C294.713 48.4492 295.359 48.3479 295.999 48.1452C296.639 47.9319 297.268 47.5799 297.887 47.0892L299.359 48.8012C298.676 49.3879 297.871 49.8732 296.943 50.2572C296.025 50.6412 295.039 50.8332 293.983 50.8332ZM310.981 50.4492L306.917 34.0972H309.477L311.989 44.9772C312.032 45.1586 312.075 45.3666 312.117 45.6012C312.16 45.8252 312.197 46.0546 312.229 46.2892C312.283 46.0012 312.325 45.7559 312.357 45.5532C312.4 45.3399 312.448 45.1212 312.501 44.8972L314.885 34.0972H316.981L319.381 44.9292C319.435 45.1426 319.488 45.3772 319.541 45.6332C319.595 45.8786 319.643 46.1399 319.685 46.4172C319.717 46.1506 319.755 45.8999 319.797 45.6652C319.851 45.4199 319.904 45.1746 319.957 44.9292L322.373 34.0972H324.949L320.869 50.4492H318.597L316.229 40.0492C316.187 39.8359 316.133 39.5799 316.069 39.2812C316.016 38.9826 315.963 38.6892 315.909 38.4012C315.856 38.7106 315.797 39.0092 315.733 39.2972C315.68 39.5746 315.632 39.8092 315.589 40.0012L313.285 50.4492H310.981Z" fill="url(#paint0_linear_2687_20567)"/>
<g filter="url(#filter0_f_2687_20567)">
<path d="M156.582 50.1292V34.0972H159.542V50.1292H156.582ZM152.07 50.4492V47.8252H164.054V50.4492H152.07ZM152.07 36.7212V34.0972H158.342V36.7212H152.07ZM158.054 31.2812C157.542 31.2812 157.11 31.1052 156.758 30.7532C156.406 30.3906 156.23 29.9532 156.23 29.4412C156.23 28.9186 156.406 28.4812 156.758 28.1292C157.11 27.7666 157.542 27.5852 158.054 27.5852C158.587 27.5852 159.025 27.7666 159.366 28.1292C159.718 28.4812 159.894 28.9186 159.894 29.4412C159.894 29.9532 159.718 30.3906 159.366 30.7532C159.025 31.1052 158.587 31.2812 158.054 31.2812ZM173.901 50.4492V34.0972H176.861V37.4252L176.429 36.6892C176.6 36.1346 176.914 35.6332 177.373 35.1852C177.842 34.7372 178.418 34.3799 179.101 34.1132C179.794 33.8466 180.557 33.7132 181.389 33.7132C182.626 33.7132 183.698 33.9532 184.605 34.4332C185.512 34.9026 186.21 35.6706 186.701 36.7372C187.192 37.7932 187.437 39.1906 187.437 40.9292V50.4492H184.477V40.8492C184.477 39.2279 184.12 38.0919 183.405 37.4412C182.69 36.7906 181.816 36.4652 180.781 36.4652C180.045 36.4652 179.378 36.5986 178.781 36.8652C178.194 37.1212 177.725 37.5639 177.373 38.1932C177.032 38.8226 176.861 39.6866 176.861 40.7852V50.4492H173.901ZM205.06 50.8332C203.513 50.8332 202.404 50.4599 201.732 49.7132C201.06 48.9559 200.724 47.9372 200.724 46.6572V36.7212H197.076V34.0972H200.724V28.7852L203.684 27.3452V34.0972H209.204V36.7212H203.684V45.8252C203.684 46.2839 203.748 46.6892 203.876 47.0412C204.004 47.3932 204.238 47.6652 204.58 47.8572C204.921 48.0492 205.406 48.1452 206.036 48.1452C206.74 48.1452 207.316 48.0546 207.764 47.8732C208.222 47.6919 208.633 47.4946 208.996 47.2812L208.644 50.0972C208.206 50.3212 207.71 50.4972 207.156 50.6252C206.612 50.7639 205.913 50.8332 205.06 50.8332ZM226.49 50.8332C224.933 50.8332 223.578 50.4919 222.426 49.8092C221.274 49.1266 220.378 48.1506 219.738 46.8812C219.109 45.6012 218.794 44.0706 218.794 42.2892C218.794 40.5186 219.109 38.9932 219.738 37.7132C220.378 36.4332 221.274 35.4466 222.426 34.7532C223.578 34.0599 224.933 33.7132 226.49 33.7132C228.058 33.7132 229.418 34.0546 230.57 34.7372C231.722 35.4199 232.613 36.4012 233.242 37.6812C233.872 38.9612 234.186 40.4919 234.186 42.2732C234.186 44.0439 233.872 45.5692 233.242 46.8492C232.613 48.1292 231.722 49.1159 230.57 49.8092C229.418 50.4919 228.058 50.8332 226.49 50.8332ZM226.49 48.0652C227.994 48.0652 229.146 47.5479 229.946 46.5132C230.757 45.4679 231.162 44.0546 231.162 42.2732C231.162 40.4919 230.768 39.0786 229.978 38.0332C229.2 36.9879 228.037 36.4652 226.49 36.4652C224.976 36.4652 223.818 36.9772 223.018 38.0012C222.218 39.0252 221.818 40.4546 221.818 42.2892C221.818 44.0599 222.218 45.4679 223.018 46.5132C223.818 47.5479 224.976 48.0652 226.49 48.0652ZM248.129 50.4492L241.841 34.0972H244.961L248.945 44.8972C249.041 45.1426 249.132 45.4039 249.217 45.6812C249.302 45.9479 249.388 46.2519 249.473 46.5932C249.558 46.2519 249.644 45.9479 249.729 45.6812C249.825 45.4039 249.916 45.1426 250.001 44.8972L253.921 34.0972H256.993L250.705 50.4492H248.129ZM271.176 50.1292V34.0972H274.136V50.1292H271.176ZM266.664 50.4492V47.8252H278.648V50.4492H266.664ZM266.664 36.7212V34.0972H272.936V36.7212H266.664ZM272.648 31.2812C272.136 31.2812 271.704 31.1052 271.352 30.7532C271 30.3906 270.824 29.9532 270.824 29.4412C270.824 28.9186 271 28.4812 271.352 28.1292C271.704 27.7666 272.136 27.5852 272.648 27.5852C273.181 27.5852 273.619 27.7666 273.96 28.1292C274.312 28.4812 274.488 28.9186 274.488 29.4412C274.488 29.9532 274.312 30.3906 273.96 30.7532C273.619 31.1052 273.181 31.2812 272.648 31.2812ZM295.583 50.8332C294.004 50.8332 292.649 50.4599 291.519 49.7132C290.388 48.9559 289.519 47.9319 288.911 46.6412C288.313 45.3506 288.015 43.8892 288.015 42.2572C288.015 40.4652 288.324 38.9346 288.943 37.6652C289.572 36.3852 290.452 35.4092 291.583 34.7372C292.724 34.0546 294.057 33.7132 295.583 33.7132C296.841 33.7132 297.993 33.9906 299.039 34.5452C300.084 35.0999 300.916 35.9532 301.535 37.1052C302.164 38.2572 302.479 39.7346 302.479 41.5372C302.479 41.7612 302.473 42.0386 302.463 42.3692C302.463 42.6999 302.436 43.0572 302.383 43.4412H290.319V40.8652H299.535C299.503 39.7132 299.279 38.8066 298.863 38.1452C298.457 37.4839 297.956 37.0199 297.359 36.7532C296.761 36.4759 296.169 36.3372 295.583 36.3372C293.983 36.3372 292.809 36.8439 292.063 37.8572C291.316 38.8706 290.943 40.2359 290.943 41.9532C290.943 43.8519 291.359 45.3612 292.191 46.4812C293.023 47.6012 294.175 48.1612 295.647 48.1612C296.329 48.1612 296.98 48.0492 297.599 47.8252C298.228 47.5906 298.831 47.2226 299.407 46.7212L301.119 48.6412C300.447 49.2706 299.636 49.7932 298.687 50.2092C297.748 50.6252 296.713 50.8332 295.583 50.8332ZM313.141 50.4492L309.029 34.0972H311.845L314.213 44.1612C314.267 44.3639 314.315 44.5879 314.357 44.8332C314.411 45.0679 314.453 45.3132 314.485 45.5692C314.539 45.2706 314.581 45.0146 314.613 44.8012C314.656 44.5772 314.704 44.3426 314.757 44.0972L316.997 34.0972H319.333L321.589 44.1292C321.653 44.3532 321.707 44.5932 321.749 44.8492C321.803 45.0946 321.851 45.3666 321.893 45.6652C321.936 45.3772 321.979 45.1159 322.021 44.8812C322.075 44.6359 322.128 44.3852 322.181 44.1292L324.469 34.0972H327.301L323.173 50.4492H320.725L318.517 40.7852C318.464 40.5506 318.405 40.2626 318.341 39.9212C318.277 39.5799 318.213 39.2546 318.149 38.9452C318.096 39.2652 318.032 39.5906 317.957 39.9212C317.893 40.2519 317.835 40.5292 317.781 40.7532L315.637 50.4492H313.141Z" fill="url(#paint1_linear_2687_20567)"/>
</g>
<g filter="url(#filter1_f_2687_20567)">
<path d="M32.8273 70.0927L18.4141 78.3059V61.7186L32.8273 53.5859V70.0927Z" fill="url(#paint2_linear_2687_20567)"/>
<path d="M18.3327 45.375L4 53.6687L18.4133 61.8818L32.8265 53.5881L18.3327 45.375Z" fill="white"/>
<path d="M4.08052 70.0943L18.4133 78.3074V61.8811L4 53.668L4.08052 70.0943Z" fill="url(#paint3_linear_2687_20567)"/>
</g>
<g filter="url(#filter2_f_2687_20567)">
<path d="M61.4871 61.8305L39.8672 74.1502V49.2692L61.4871 37.0703V61.8305Z" fill="url(#paint4_linear_2687_20567)"/>
<path d="M39.7491 24.75L18.25 37.1905L39.8699 49.5102L61.4898 37.0697L39.7491 24.75Z" fill="white"/>
<path d="M18.3708 61.8308L39.8699 74.1505V49.5111L18.25 37.1914L18.3708 61.8308Z" fill="url(#paint5_linear_2687_20567)"/>
</g>
<path d="M97.2796 49.4394L68.4531 65.8657V32.691L97.2796 16.4258V49.4394Z" fill="url(#paint6_linear_2687_20567)"/>
<path d="M68.2905 0L39.625 16.5873L68.4515 33.0136L97.278 16.4263L68.2905 0Z" fill="white"/>
<path d="M39.786 49.4424L68.4515 65.8687V33.0161L39.625 16.5898L39.786 49.4424Z" fill="url(#paint7_linear_2687_20567)"/>
<defs>
<filter id="filter0_f_2687_20567" x="147.57" y="22.8438" width="184.234" height="32.4883" filterUnits="userSpaceOnUse" color-interpolation-filters="sRGB">
<feFlood flood-opacity="0" result="BackgroundImageFix"/>
<feBlend mode="normal" in="SourceGraphic" in2="BackgroundImageFix" result="shape"/>
<feGaussianBlur stdDeviation="2.25" result="effect1_foregroundBlur_2687_20567"/>
</filter>
<filter id="filter1_f_2687_20567" x="0.25" y="41.625" width="36.3281" height="40.4336" filterUnits="userSpaceOnUse" color-interpolation-filters="sRGB">
<feFlood flood-opacity="0" result="BackgroundImageFix"/>
<feBlend mode="normal" in="SourceGraphic" in2="BackgroundImageFix" result="shape"/>
<feGaussianBlur stdDeviation="1.875" result="effect1_foregroundBlur_2687_20567"/>
</filter>
<filter id="filter2_f_2687_20567" x="16.375" y="22.875" width="46.9922" height="53.1523" filterUnits="userSpaceOnUse" color-interpolation-filters="sRGB">
<feFlood flood-opacity="0" result="BackgroundImageFix"/>
<feBlend mode="normal" in="SourceGraphic" in2="BackgroundImageFix" result="shape"/>
<feGaussianBlur stdDeviation="0.9375" result="effect1_foregroundBlur_2687_20567"/>
</filter>
<linearGradient id="paint0_linear_2687_20567" x1="149.953" y1="41.9492" x2="325.953" y2="41.9492" gradientUnits="userSpaceOnUse">
<stop offset="0.293269" stop-color="white" stop-opacity="0"/>
<stop offset="1" stop-color="white"/>
</linearGradient>
<linearGradient id="paint1_linear_2687_20567" x1="147.453" y1="41.9492" x2="328.453" y2="41.9492" gradientUnits="userSpaceOnUse">
<stop stop-color="white"/>
<stop offset="1" stop-color="white" stop-opacity="0.1"/>
</linearGradient>
<linearGradient id="paint2_linear_2687_20567" x1="25.6207" y1="53.5859" x2="25.6207" y2="78.3059" gradientUnits="userSpaceOnUse">
<stop stop-color="#7A7A7A"/>
<stop offset="1" stop-color="#7A7A7A"/>
</linearGradient>
<linearGradient id="paint3_linear_2687_20567" x1="11.2066" y1="53.668" x2="11.2066" y2="78.3074" gradientUnits="userSpaceOnUse">
<stop stop-color="#FAFAFA"/>
<stop offset="1" stop-color="#AFAFAF"/>
</linearGradient>
<linearGradient id="paint4_linear_2687_20567" x1="50.6771" y1="37.0703" x2="50.6771" y2="74.1502" gradientUnits="userSpaceOnUse">
<stop stop-color="#7A7A7A"/>
<stop offset="1" stop-color="#7A7A7A"/>
</linearGradient>
<linearGradient id="paint5_linear_2687_20567" x1="29.0599" y1="37.1914" x2="29.0599" y2="74.1505" gradientUnits="userSpaceOnUse">
<stop stop-color="#FAFAFA"/>
<stop offset="1" stop-color="#AFAFAF"/>
</linearGradient>
<linearGradient id="paint6_linear_2687_20567" x1="82.8664" y1="16.4258" x2="82.8664" y2="65.8657" gradientUnits="userSpaceOnUse">
<stop stop-color="#7A7A7A"/>
<stop offset="1" stop-color="#7A7A7A"/>
</linearGradient>
<linearGradient id="paint7_linear_2687_20567" x1="54.0383" y1="16.5898" x2="54.0383" y2="65.8687" gradientUnits="userSpaceOnUse">
<stop stop-color="#FAFAFA"/>
<stop offset="1" stop-color="#AFAFAF"/>
</linearGradient>
</defs>
</svg>
