<svg width="393" height="393" viewBox="0 0 393 393" fill="none" xmlns="http://www.w3.org/2000/svg">
<rect width="393" height="393" fill="#7F7F7F"/>
<path fill-rule="evenodd" clip-rule="evenodd" d="M197.04 77.0856H78.0225C77.7463 77.0856 77.5225 77.3095 77.5225 77.5856V304.846C77.5225 305.123 77.7463 305.346 78.0225 305.346H197.015C197.063 305.346 197.111 305.353 197.158 305.367L299.057 335.72C299.188 335.759 299.329 335.743 299.447 335.675L314.227 327.23C314.383 327.141 314.479 326.975 314.479 326.795V68.6473C314.479 68.4858 314.401 68.3343 314.27 68.2404L299.436 57.6449C299.325 57.5654 299.186 57.535 299.051 57.5607L197.134 77.0767C197.103 77.0826 197.072 77.0856 197.04 77.0856ZM292.47 66.2166L199.261 84.2273V298.104L292.47 325.12V66.2166ZM273.552 206.511C278.563 206.511 282.626 202.448 282.626 197.437C282.626 192.426 278.563 188.363 273.552 188.363C268.541 188.363 264.478 192.426 264.478 197.437C264.478 202.448 268.541 206.511 273.552 206.511ZM137.024 174.369H86.2161V83.6152C103.265 90.7259 115.249 107.553 115.25 127.178C127.791 127.499 137.899 137.608 138.218 150.149L138.255 150.149C144.937 150.149 150.353 155.566 150.353 162.248C150.353 168.929 144.937 174.346 138.255 174.346C137.84 174.346 137.429 174.325 137.024 174.284V174.369ZM129.831 297.784H86.274V255.133C90.1753 252.279 94.9861 250.593 100.19 250.593C113.22 250.593 123.782 261.156 123.782 274.185C123.782 274.818 123.757 275.445 123.708 276.066C125.745 274.507 128.292 273.581 131.054 273.581C137.736 273.581 143.153 278.997 143.153 285.679C143.153 292.361 137.736 297.777 131.054 297.777C130.642 297.777 130.234 297.757 129.831 297.716V297.784ZM187.899 193.425C183.989 190.549 179.16 188.85 173.934 188.85C160.905 188.85 150.343 199.412 150.343 212.442C150.343 213.075 150.368 213.702 150.416 214.322C148.38 212.764 145.833 211.837 143.07 211.837C136.389 211.837 130.972 217.254 130.972 223.936C130.972 230.617 136.389 236.034 143.07 236.034C143.483 236.034 143.892 236.013 144.294 235.973V236.048H187.899V193.425Z" fill="black"/>
<rect x="86" y="83" width="102" height="215" fill="#D9D9D9"/>
</svg>
