<svg width="836" height="174" viewBox="0 0 836 174" fill="none" xmlns="http://www.w3.org/2000/svg">
<g clip-path="url(#clip0_2137_33312)">
<path d="M202.39 150.741V56.2962H225.861V150.741H202.39ZM201.272 40.7407V15H226.793V40.7407H201.272Z" fill="#2F2F2F"/>
<path d="M237.74 150.741V56.2962H260.652V78.5184H261.211V150.741H237.74ZM304.429 150.741V91.111C304.429 85.3085 302.938 80.9258 299.958 77.9629C296.977 74.9999 292.631 73.5184 286.918 73.5184C281.951 73.5184 277.48 74.6295 273.506 76.8518C269.656 79.074 266.613 82.1604 264.378 86.111C262.267 90.0616 261.211 94.6295 261.211 99.8147L258.789 77.2221C262.018 70.3086 266.738 64.8147 272.947 60.7407C279.156 56.5431 286.608 54.4444 295.301 54.4444C305.608 54.4444 313.619 57.3456 319.331 63.1481C325.168 68.9505 328.086 76.6666 328.086 86.2962V150.741H304.429Z" fill="#2F2F2F"/>
<path d="M377.964 152.592C366.29 152.592 357.659 149.876 352.07 144.444C346.606 138.889 343.874 130.617 343.874 119.629V34.8148L367.532 26.1111V120.185C367.532 124.753 368.774 128.148 371.257 130.37C373.741 132.592 377.653 133.704 382.993 133.704C385.104 133.704 386.967 133.58 388.582 133.333C390.32 132.963 391.935 132.531 393.425 132.037V150.185C391.935 150.926 389.823 151.481 387.091 151.852C384.359 152.345 381.317 152.592 377.964 152.592ZM325.618 74.6295V56.2962H393.425V74.6295H325.618Z" fill="#2F2F2F"/>
<path d="M438.249 152.592C428.19 152.592 419.31 150.494 411.611 146.296C404.035 142.099 398.136 136.296 393.914 128.889C389.692 121.358 387.58 112.778 387.58 103.148C387.58 93.5184 389.692 85.0616 393.914 77.7777C398.136 70.4937 404.035 64.8147 411.611 60.7407C419.31 56.5431 428.19 54.4444 438.249 54.4444C448.432 54.4444 457.312 56.5431 464.887 60.7407C472.463 64.8147 478.362 70.4937 482.584 77.7777C486.807 85.0616 488.918 93.5184 488.918 103.148C488.918 112.778 486.745 121.358 482.398 128.889C478.176 136.296 472.277 142.099 464.701 146.296C457.126 150.494 448.308 152.592 438.249 152.592ZM438.249 133.889C443.217 133.889 447.687 132.654 451.661 130.185C455.635 127.592 458.74 124.012 460.975 119.444C463.211 114.753 464.329 109.259 464.329 102.963C464.329 93.7036 461.845 86.4197 456.877 81.111C452.034 75.8024 445.825 73.1481 438.249 73.1481C430.674 73.1481 424.402 75.8024 419.435 81.111C414.467 86.4197 411.983 93.7036 411.983 102.963C411.983 109.259 413.101 114.753 415.336 119.444C417.696 124.012 420.801 127.592 424.65 130.185C428.624 132.654 433.157 133.889 438.249 133.889Z" fill="#2F2F2F"/>
<path d="M516.866 150.741L478.864 56.2962H504.199L534.563 143.148H522.082L552.446 56.2962H577.035L538.847 150.741H516.866Z" fill="#2F2F2F"/>
<path d="M575.791 150.741V56.2962H599.262V150.741H575.791ZM574.673 40.7407V15H600.194V40.7407H574.673Z" fill="#2F2F2F"/>
<path d="M653.436 152.592C643.376 152.592 634.559 150.494 626.983 146.296C619.532 142.099 613.695 136.296 609.473 128.889C605.375 121.481 603.326 112.963 603.326 103.333C603.326 93.7036 605.375 85.2468 609.473 77.9629C613.695 70.5555 619.532 64.8147 626.983 60.7407C634.435 56.5431 643.128 54.4444 653.063 54.4444C662.501 54.4444 670.698 56.4197 677.652 60.3703C684.607 64.1975 690.009 69.6296 693.859 76.6666C697.709 83.7036 699.633 91.9135 699.633 101.296C699.633 103.025 699.571 104.63 699.447 106.111C699.323 107.592 699.137 109.074 698.888 110.555H617.856V94.2591H680.819L675.976 98.7036C675.976 89.8147 673.927 83.1481 669.828 78.7036C665.73 74.2592 660.017 72.037 652.69 72.037C644.742 72.037 638.409 74.753 633.69 80.1851C629.095 85.6172 626.797 93.4567 626.797 103.704C626.797 113.827 629.095 121.605 633.69 127.037C638.409 132.346 645.053 135 653.622 135C658.589 135 662.936 134.074 666.662 132.222C670.387 130.37 673.119 127.531 674.858 123.704H697.026C693.921 132.592 688.643 139.629 681.192 144.815C673.864 150 664.612 152.592 653.436 152.592Z" fill="#2F2F2F"/>
<path d="M721.535 150.741L692.475 56.2962H717.064L734.202 127.222H732.525L753.575 56.2962H774.998L796.42 127.222H794.557L811.509 56.2962H835.539L806.479 150.741H784.498L763.076 80.5555H764.938L743.516 150.741H721.535Z" fill="#2F2F2F"/>
<path d="M75.067 12.0181H1C0.447715 12.0181 0 12.4658 0 13.0181V153.9C0 154.452 0.447716 154.9 1 154.9H75.0163C75.1125 154.9 75.2082 154.914 75.3004 154.941L137.828 173.472C138.093 173.55 138.379 173.515 138.617 173.376L148.486 167.599C148.792 167.42 148.981 167.091 148.981 166.736V8.05597C148.981 7.73009 148.822 7.42466 148.555 7.23745L138.589 0.242967C138.368 0.0876487 138.093 0.0285534 137.828 0.0791514L75.2541 12.0004C75.1924 12.0122 75.1298 12.0181 75.067 12.0181Z" fill="white"/>
<path fill-rule="evenodd" clip-rule="evenodd" d="M75.0967 15.5391H4.39258C4.11644 15.5391 3.89258 15.763 3.89258 16.0391V151.065C3.89258 151.341 4.11643 151.565 4.39258 151.565H75.0713C75.1196 151.565 75.1677 151.572 75.214 151.586L135.827 169.641C135.958 169.68 136.099 169.663 136.218 169.595L144.848 164.664C145.004 164.575 145.1 164.409 145.1 164.23V10.6145C145.1 10.453 145.022 10.3015 144.891 10.2076L136.206 4.00427C136.095 3.92477 135.956 3.89433 135.821 3.92006L75.1907 15.5302C75.1597 15.5361 75.1283 15.5391 75.0967 15.5391ZM131.984 9.05641L76.4382 19.7894V147.243L131.984 163.343V9.05641ZM120.712 92.6648C123.698 92.6648 126.119 90.2439 126.119 87.2576C126.119 84.2712 123.698 81.8503 120.712 81.8503C117.725 81.8503 115.304 84.2712 115.304 87.2576C115.304 90.2439 117.725 92.6648 120.712 92.6648ZM39.3427 73.524H9.06445V19.4414C19.2232 23.6791 26.3637 33.7057 26.3648 45.4002C33.8385 45.5898 39.8627 51.612 40.0555 59.0849L40.0751 59.0849C44.0569 59.0849 47.2847 62.3128 47.2847 66.2945C47.2847 70.2763 44.0569 73.5042 40.0751 73.5042C39.8278 73.5042 39.5835 73.4917 39.3427 73.4675V73.524ZM35.0707 147.058H9.10547V121.65C11.4318 119.945 14.3019 118.938 17.4071 118.938C25.1716 118.938 31.4659 125.233 31.4659 132.997C31.4659 133.375 31.451 133.75 31.4217 134.12C32.6356 133.191 34.1536 132.639 35.8006 132.639C39.7824 132.639 43.0102 135.867 43.0102 139.848C43.0102 143.83 39.7824 147.058 35.8006 147.058C35.5542 147.058 35.3107 147.046 35.0707 147.021V147.058ZM70 85.1499C67.6111 83.2751 64.6 82.1572 61.3278 82.1572C53.5633 82.1572 47.269 88.4516 47.269 96.216C47.269 96.5942 47.2839 96.9689 47.3132 97.3395C46.0992 96.4098 44.581 95.8574 42.9338 95.8574C38.952 95.8574 35.7241 99.0853 35.7241 103.067C35.7241 107.049 38.952 110.277 42.9338 110.277C43.181 110.277 43.4254 110.264 43.6663 110.24V110.281H70V85.1499Z" fill="black"/>
<rect x="9" y="19" width="61" height="128" fill="#D9D9D9"/>
</g>
<defs>
<clipPath id="clip0_2137_33312">
<rect width="836" height="174" fill="white"/>
</clipPath>
</defs>
</svg>
