<svg width="332" height="83" viewBox="0 0 332 83" fill="none" xmlns="http://www.w3.org/2000/svg">
<g filter="url(#filter0_f_572_399)">
<path d="M58.9219 68.0029L46.8359 74.8896V60.9814L58.9219 54.1621V68.0029Z" fill="#FF8DA1" stroke="black" stroke-width="0.5"/>
<path d="M58.667 53.7354L46.584 60.6875L34.502 53.8027L46.5166 46.8506L58.667 53.7354Z" fill="#FF8DA1" stroke="black" stroke-width="0.5"/>
<path d="M46.3359 61.1211V74.8887L34.3193 68.0029L34.252 54.2354L46.3359 61.1211Z" fill="#FF8DA1" stroke="black" stroke-width="0.5"/>
</g>
<g filter="url(#filter1_f_572_399)">
<path d="M84.0703 60.9834L65.6914 71.4561V50.3057L84.0703 39.9355V60.9834Z" fill="#FF8DA1" stroke="black" stroke-width="0.5"/>
<path d="M83.8154 39.5088L65.4395 50.082L47.0645 39.6113L65.3369 29.0381L83.8154 39.5088Z" fill="#FF8DA1" stroke="black" stroke-width="0.5"/>
<path d="M65.1914 50.5156V71.4551L46.917 60.9834L46.8145 40.0439L65.1914 50.5156Z" fill="#FF8DA1" stroke="black" stroke-width="0.5"/>
</g>
<path d="M115.203 49.8809L91.0312 63.6553V35.8389L115.203 22.2002V49.8809Z" fill="#FF8DA1" stroke="black"/>
<path d="M114.695 21.3467L90.5293 35.252L66.3623 21.4805L90.3926 7.5752L114.695 21.3467Z" fill="#FF8DA1" stroke="black"/>
<path d="M90.0312 36.1182V63.6523L65.998 49.8809L65.8633 22.3467L90.0312 36.1182Z" fill="#FF8DA1" stroke="black"/>
<path opacity="0.33" d="M90.4375 35.7813L90.4375 7" stroke="white" stroke-width="0.375"/>
<path opacity="0.33" d="M90.438 35.7812L115.363 50.1719" stroke="white" stroke-width="0.375"/>
<path opacity="0.33" d="M90.4409 35.7813L65.5156 50.1719" stroke="white" stroke-width="0.375"/>
<mask id="path-13-outside-1_572_399" maskUnits="userSpaceOnUse" x="145.863" y="25.0625" width="154" height="26" fill="black">
<rect fill="white" x="145.863" y="25.0625" width="154" height="26"/>
<path d="M152.108 48.0625V34.2377H155.219V48.0625H152.108ZM148.294 48.0625V45.33H159.034V48.0625H148.294ZM148.294 36.9702V34.2377H154.137V36.9702H148.294ZM153.65 32.3168C153.136 32.3168 152.699 32.1365 152.338 31.7757C151.986 31.406 151.811 30.9641 151.811 30.4501C151.811 29.936 151.986 29.5032 152.338 29.1515C152.699 28.7907 153.136 28.6104 153.65 28.6104C154.182 28.6104 154.624 28.7907 154.976 29.1515C155.337 29.5032 155.517 29.936 155.517 30.4501C155.517 30.9641 155.337 31.406 154.976 31.7757C154.624 32.1365 154.182 32.3168 153.65 32.3168ZM166.859 48.0625V34.2377H169.97V37.5113L169.564 36.5914C169.564 36.1856 169.758 35.7798 170.146 35.374C170.533 34.9591 171.052 34.6119 171.701 34.3324C172.36 34.0528 173.09 33.913 173.893 33.913C174.813 33.913 175.66 34.0934 176.436 34.4541C177.211 34.8148 177.834 35.4146 178.303 36.2532C178.772 37.0829 179.006 38.2057 179.006 39.6215V48.0625H175.895V40.2708C175.895 38.9993 175.611 38.1155 175.043 37.6195C174.483 37.1145 173.812 36.862 173.027 36.862C172.477 36.862 171.967 36.9657 171.498 37.1731C171.038 37.3715 170.669 37.7142 170.389 38.2012C170.11 38.6881 169.97 39.36 169.97 40.2167V48.0625H166.859ZM193.567 48.3872C192.124 48.3872 191.087 48.0625 190.456 47.4132C189.824 46.7549 189.509 45.826 189.509 44.6266V36.9702H186.614V34.2377H189.509V30.0172L192.62 28.5292V34.2377H197.328V36.9702H192.62V44.0314C192.62 44.3741 192.683 44.6672 192.809 44.9107C192.945 45.1451 193.152 45.3255 193.432 45.4517C193.72 45.569 194.099 45.6276 194.568 45.6276C195.028 45.6276 195.447 45.569 195.826 45.4517C196.214 45.3255 196.588 45.1677 196.949 44.9783L196.57 47.7649C196.182 47.9633 195.745 48.1166 195.258 48.2248C194.771 48.333 194.207 48.3872 193.567 48.3872ZM211.672 48.3872C210.31 48.3872 209.133 48.0941 208.141 47.5079C207.149 46.9217 206.383 46.092 205.842 45.0189C205.31 43.9367 205.044 42.6516 205.044 41.1636C205.044 39.6937 205.31 38.4176 205.842 37.3354C206.383 36.2442 207.149 35.401 208.141 34.8058C209.133 34.2106 210.31 33.913 211.672 33.913C213.043 33.913 214.224 34.2106 215.216 34.8058C216.208 35.392 216.97 36.2307 217.502 37.3219C218.034 38.4041 218.3 39.6846 218.3 41.1636C218.3 42.6426 218.034 43.9232 217.502 45.0053C216.97 46.0875 216.208 46.9217 215.216 47.5079C214.224 48.0941 213.043 48.3872 211.672 48.3872ZM211.672 45.4112C212.808 45.4112 213.674 45.0234 214.269 44.2478C214.865 43.4723 215.162 42.4442 215.162 41.1636C215.162 39.874 214.869 38.8369 214.283 38.0524C213.697 37.2588 212.826 36.862 211.672 36.862C210.554 36.862 209.693 37.2543 209.088 38.0388C208.484 38.8234 208.182 39.865 208.182 41.1636C208.182 42.4442 208.484 43.4723 209.088 44.2478C209.693 45.0234 210.554 45.4112 211.672 45.4112ZM229.534 48.0625L224.15 34.2377H227.478L230.67 43.0033C230.751 43.2198 230.823 43.4407 230.886 43.6662C230.95 43.8916 231.013 44.1667 231.076 44.4913C231.13 44.1667 231.189 43.8916 231.252 43.6662C231.324 43.4407 231.4 43.2198 231.482 43.0033L234.647 34.2377H237.948L232.564 48.0625H229.534ZM248.992 48.0625V34.2377H252.103V48.0625H248.992ZM245.177 48.0625V45.33H255.917V48.0625H245.177ZM245.177 36.9702V34.2377H251.021V36.9702H245.177ZM250.534 32.3168C250.02 32.3168 249.582 32.1365 249.222 31.7757C248.87 31.406 248.694 30.9641 248.694 30.4501C248.694 29.936 248.87 29.5032 249.222 29.1515C249.582 28.7907 250.02 28.6104 250.534 28.6104C251.066 28.6104 251.508 28.7907 251.859 29.1515C252.22 29.5032 252.4 29.936 252.4 30.4501C252.4 30.9641 252.22 31.406 251.859 31.7757C251.508 32.1365 251.066 32.3168 250.534 32.3168ZM270.1 48.3872C268.729 48.3872 267.548 48.0896 266.556 47.4944C265.573 46.8901 264.815 46.0469 264.283 44.9648C263.76 43.8736 263.498 42.5975 263.498 41.1366C263.498 39.6396 263.769 38.3545 264.31 37.2813C264.851 36.1991 265.613 35.3695 266.596 34.7923C267.588 34.2061 268.756 33.913 270.1 33.913C271.209 33.913 272.219 34.1475 273.13 34.6165C274.041 35.0854 274.762 35.8023 275.294 36.7673C275.835 37.7322 276.106 38.9632 276.106 40.4602C276.106 40.7037 276.101 40.9923 276.092 41.3259C276.083 41.6596 276.052 42.0023 275.998 42.354H265.879V39.7027H273.049C272.986 38.9902 272.81 38.4086 272.521 37.9577C272.233 37.5068 271.876 37.1776 271.452 36.9702C271.029 36.7538 270.578 36.6455 270.1 36.6455C268.828 36.6455 267.908 37.0423 267.34 37.8359C266.781 38.6295 266.501 39.7117 266.501 41.0825C266.501 42.4442 266.817 43.5444 267.448 44.3831C268.089 45.2128 268.981 45.6276 270.127 45.6276C270.74 45.6276 271.295 45.5194 271.791 45.3029C272.287 45.0865 272.751 44.7438 273.184 44.2749L275.051 46.2499C274.474 46.8811 273.77 47.3952 272.94 47.792C272.12 48.1888 271.173 48.3872 270.1 48.3872ZM284.796 48.0625L281.252 34.2377H284.066L285.824 41.353C285.887 41.5875 285.937 41.8129 285.973 42.0294C286.018 42.2368 286.059 42.4622 286.095 42.7057C286.14 42.4352 286.176 42.2007 286.203 42.0023C286.239 41.7949 286.284 41.5694 286.338 41.3259L287.988 34.2377H290.369L292.02 41.353C292.074 41.5785 292.123 41.7994 292.168 42.0158C292.213 42.2323 292.254 42.4713 292.29 42.7328C292.335 42.4713 292.376 42.2368 292.412 42.0294C292.448 41.8219 292.497 41.5965 292.561 41.353L294.265 34.2377H297.106L293.535 48.0625H291.154L289.558 41.1366C289.503 40.9021 289.44 40.6045 289.368 40.2438C289.296 39.874 289.233 39.5404 289.179 39.2428C289.125 39.5404 289.057 39.874 288.976 40.2438C288.895 40.6045 288.827 40.9021 288.773 41.1366L287.231 48.0625H284.796Z"/>
</mask>
<path d="M152.108 48.0625V34.2377H155.219V48.0625H152.108ZM148.294 48.0625V45.33H159.034V48.0625H148.294ZM148.294 36.9702V34.2377H154.137V36.9702H148.294ZM153.65 32.3168C153.136 32.3168 152.699 32.1365 152.338 31.7757C151.986 31.406 151.811 30.9641 151.811 30.4501C151.811 29.936 151.986 29.5032 152.338 29.1515C152.699 28.7907 153.136 28.6104 153.65 28.6104C154.182 28.6104 154.624 28.7907 154.976 29.1515C155.337 29.5032 155.517 29.936 155.517 30.4501C155.517 30.9641 155.337 31.406 154.976 31.7757C154.624 32.1365 154.182 32.3168 153.65 32.3168ZM166.859 48.0625V34.2377H169.97V37.5113L169.564 36.5914C169.564 36.1856 169.758 35.7798 170.146 35.374C170.533 34.9591 171.052 34.6119 171.701 34.3324C172.36 34.0528 173.09 33.913 173.893 33.913C174.813 33.913 175.66 34.0934 176.436 34.4541C177.211 34.8148 177.834 35.4146 178.303 36.2532C178.772 37.0829 179.006 38.2057 179.006 39.6215V48.0625H175.895V40.2708C175.895 38.9993 175.611 38.1155 175.043 37.6195C174.483 37.1145 173.812 36.862 173.027 36.862C172.477 36.862 171.967 36.9657 171.498 37.1731C171.038 37.3715 170.669 37.7142 170.389 38.2012C170.11 38.6881 169.97 39.36 169.97 40.2167V48.0625H166.859ZM193.567 48.3872C192.124 48.3872 191.087 48.0625 190.456 47.4132C189.824 46.7549 189.509 45.826 189.509 44.6266V36.9702H186.614V34.2377H189.509V30.0172L192.62 28.5292V34.2377H197.328V36.9702H192.62V44.0314C192.62 44.3741 192.683 44.6672 192.809 44.9107C192.945 45.1451 193.152 45.3255 193.432 45.4517C193.72 45.569 194.099 45.6276 194.568 45.6276C195.028 45.6276 195.447 45.569 195.826 45.4517C196.214 45.3255 196.588 45.1677 196.949 44.9783L196.57 47.7649C196.182 47.9633 195.745 48.1166 195.258 48.2248C194.771 48.333 194.207 48.3872 193.567 48.3872ZM211.672 48.3872C210.31 48.3872 209.133 48.0941 208.141 47.5079C207.149 46.9217 206.383 46.092 205.842 45.0189C205.31 43.9367 205.044 42.6516 205.044 41.1636C205.044 39.6937 205.31 38.4176 205.842 37.3354C206.383 36.2442 207.149 35.401 208.141 34.8058C209.133 34.2106 210.31 33.913 211.672 33.913C213.043 33.913 214.224 34.2106 215.216 34.8058C216.208 35.392 216.97 36.2307 217.502 37.3219C218.034 38.4041 218.3 39.6846 218.3 41.1636C218.3 42.6426 218.034 43.9232 217.502 45.0053C216.97 46.0875 216.208 46.9217 215.216 47.5079C214.224 48.0941 213.043 48.3872 211.672 48.3872ZM211.672 45.4112C212.808 45.4112 213.674 45.0234 214.269 44.2478C214.865 43.4723 215.162 42.4442 215.162 41.1636C215.162 39.874 214.869 38.8369 214.283 38.0524C213.697 37.2588 212.826 36.862 211.672 36.862C210.554 36.862 209.693 37.2543 209.088 38.0388C208.484 38.8234 208.182 39.865 208.182 41.1636C208.182 42.4442 208.484 43.4723 209.088 44.2478C209.693 45.0234 210.554 45.4112 211.672 45.4112ZM229.534 48.0625L224.15 34.2377H227.478L230.67 43.0033C230.751 43.2198 230.823 43.4407 230.886 43.6662C230.95 43.8916 231.013 44.1667 231.076 44.4913C231.13 44.1667 231.189 43.8916 231.252 43.6662C231.324 43.4407 231.4 43.2198 231.482 43.0033L234.647 34.2377H237.948L232.564 48.0625H229.534ZM248.992 48.0625V34.2377H252.103V48.0625H248.992ZM245.177 48.0625V45.33H255.917V48.0625H245.177ZM245.177 36.9702V34.2377H251.021V36.9702H245.177ZM250.534 32.3168C250.02 32.3168 249.582 32.1365 249.222 31.7757C248.87 31.406 248.694 30.9641 248.694 30.4501C248.694 29.936 248.87 29.5032 249.222 29.1515C249.582 28.7907 250.02 28.6104 250.534 28.6104C251.066 28.6104 251.508 28.7907 251.859 29.1515C252.22 29.5032 252.4 29.936 252.4 30.4501C252.4 30.9641 252.22 31.406 251.859 31.7757C251.508 32.1365 251.066 32.3168 250.534 32.3168ZM270.1 48.3872C268.729 48.3872 267.548 48.0896 266.556 47.4944C265.573 46.8901 264.815 46.0469 264.283 44.9648C263.76 43.8736 263.498 42.5975 263.498 41.1366C263.498 39.6396 263.769 38.3545 264.31 37.2813C264.851 36.1991 265.613 35.3695 266.596 34.7923C267.588 34.2061 268.756 33.913 270.1 33.913C271.209 33.913 272.219 34.1475 273.13 34.6165C274.041 35.0854 274.762 35.8023 275.294 36.7673C275.835 37.7322 276.106 38.9632 276.106 40.4602C276.106 40.7037 276.101 40.9923 276.092 41.3259C276.083 41.6596 276.052 42.0023 275.998 42.354H265.879V39.7027H273.049C272.986 38.9902 272.81 38.4086 272.521 37.9577C272.233 37.5068 271.876 37.1776 271.452 36.9702C271.029 36.7538 270.578 36.6455 270.1 36.6455C268.828 36.6455 267.908 37.0423 267.34 37.8359C266.781 38.6295 266.501 39.7117 266.501 41.0825C266.501 42.4442 266.817 43.5444 267.448 44.3831C268.089 45.2128 268.981 45.6276 270.127 45.6276C270.74 45.6276 271.295 45.5194 271.791 45.3029C272.287 45.0865 272.751 44.7438 273.184 44.2749L275.051 46.2499C274.474 46.8811 273.77 47.3952 272.94 47.792C272.12 48.1888 271.173 48.3872 270.1 48.3872ZM284.796 48.0625L281.252 34.2377H284.066L285.824 41.353C285.887 41.5875 285.937 41.8129 285.973 42.0294C286.018 42.2368 286.059 42.4622 286.095 42.7057C286.14 42.4352 286.176 42.2007 286.203 42.0023C286.239 41.7949 286.284 41.5694 286.338 41.3259L287.988 34.2377H290.369L292.02 41.353C292.074 41.5785 292.123 41.7994 292.168 42.0158C292.213 42.2323 292.254 42.4713 292.29 42.7328C292.335 42.4713 292.376 42.2368 292.412 42.0294C292.448 41.8219 292.497 41.5965 292.561 41.353L294.265 34.2377H297.106L293.535 48.0625H291.154L289.558 41.1366C289.503 40.9021 289.44 40.6045 289.368 40.2438C289.296 39.874 289.233 39.5404 289.179 39.2428C289.125 39.5404 289.057 39.874 288.976 40.2438C288.895 40.6045 288.827 40.9021 288.773 41.1366L287.231 48.0625H284.796Z" fill="url(#paint0_linear_572_399)"/>
<path d="M152.108 48.0625H150.108V50.0625H152.108V48.0625ZM152.108 34.2377V32.2377H150.108V34.2377H152.108ZM155.219 34.2377H157.219V32.2377H155.219V34.2377ZM155.219 48.0625V50.0625H157.219V48.0625H155.219ZM148.294 48.0625H146.294V50.0625H148.294V48.0625ZM148.294 45.33V43.33H146.294V45.33H148.294ZM159.034 45.33H161.034V43.33H159.034V45.33ZM159.034 48.0625V50.0625H161.034V48.0625H159.034ZM148.294 36.9702H146.294V38.9702H148.294V36.9702ZM148.294 34.2377V32.2377H146.294V34.2377H148.294ZM154.137 34.2377H156.137V32.2377H154.137V34.2377ZM154.137 36.9702V38.9702H156.137V36.9702H154.137ZM152.338 31.7757L150.889 33.1542L150.906 33.1723L150.924 33.1899L152.338 31.7757ZM152.338 29.1515L150.924 27.7372L150.924 27.7372L152.338 29.1515ZM154.976 29.1515L153.544 30.5477L153.562 30.5658L153.58 30.5835L154.976 29.1515ZM154.976 31.7757L153.544 30.3791L153.544 30.3795L154.976 31.7757ZM152.108 48.0625H154.108V34.2377H152.108H150.108V48.0625H152.108ZM152.108 34.2377V36.2377H155.219V34.2377V32.2377H152.108V34.2377ZM155.219 34.2377H153.219V48.0625H155.219H157.219V34.2377H155.219ZM155.219 48.0625V46.0625H152.108V48.0625V50.0625H155.219V48.0625ZM148.294 48.0625H150.294V45.33H148.294H146.294V48.0625H148.294ZM148.294 45.33V47.33H159.034V45.33V43.33H148.294V45.33ZM159.034 45.33H157.034V48.0625H159.034H161.034V45.33H159.034ZM159.034 48.0625V46.0625H148.294V48.0625V50.0625H159.034V48.0625ZM148.294 36.9702H150.294V34.2377H148.294H146.294V36.9702H148.294ZM148.294 34.2377V36.2377H154.137V34.2377V32.2377H148.294V34.2377ZM154.137 34.2377H152.137V36.9702H154.137H156.137V34.2377H154.137ZM154.137 36.9702V34.9702H148.294V36.9702V38.9702H154.137V36.9702ZM153.65 32.3168V30.3168C153.639 30.3168 153.64 30.3159 153.652 30.318C153.663 30.3202 153.68 30.3246 153.699 30.3326C153.718 30.3405 153.734 30.3495 153.745 30.357C153.756 30.3644 153.758 30.3674 153.752 30.3615L152.338 31.7757L150.924 33.1899C151.663 33.929 152.61 34.3168 153.65 34.3168V32.3168ZM152.338 31.7757L153.787 30.3973C153.779 30.389 153.78 30.388 153.784 30.3949C153.789 30.4021 153.795 30.4133 153.801 30.4275C153.806 30.4417 153.809 30.4534 153.811 30.4602C153.812 30.4667 153.811 30.4642 153.811 30.4501H151.811H149.811C149.811 31.473 150.181 32.4096 150.889 33.1542L152.338 31.7757ZM151.811 30.4501H153.811C153.811 30.4359 153.812 30.4351 153.81 30.4449C153.808 30.4552 153.804 30.4721 153.795 30.4926C153.787 30.5133 153.777 30.5318 153.767 30.5464C153.757 30.5609 153.751 30.5671 153.752 30.5657L152.338 29.1515L150.924 27.7372C150.183 28.4778 149.811 29.4254 149.811 30.4501H151.811ZM152.338 29.1515L153.752 30.5657C153.758 30.5598 153.756 30.5628 153.745 30.5701C153.734 30.5777 153.718 30.5866 153.699 30.5946C153.68 30.6025 153.663 30.607 153.652 30.6092C153.64 30.6113 153.639 30.6104 153.65 30.6104V28.6104V26.6104C152.61 26.6104 151.663 26.9982 150.924 27.7372L152.338 29.1515ZM153.65 28.6104V30.6104C153.67 30.6104 153.675 30.612 153.668 30.6107C153.661 30.6094 153.645 30.6057 153.625 30.5973C153.604 30.5889 153.585 30.5783 153.569 30.5672C153.552 30.5562 153.544 30.5482 153.544 30.5477L154.976 29.1515L156.408 27.7553C155.657 26.9849 154.688 26.6104 153.65 26.6104V28.6104ZM154.976 29.1515L153.58 30.5835C153.582 30.586 153.576 30.5805 153.566 30.5659C153.556 30.5511 153.545 30.5317 153.536 30.5091C153.526 30.4866 153.521 30.4673 153.519 30.454C153.516 30.4411 153.517 30.4389 153.517 30.4501H155.517H157.517C157.517 29.4091 157.128 28.4561 156.372 27.7195L154.976 29.1515ZM155.517 30.4501H153.517C153.517 30.4612 153.516 30.4607 153.518 30.4513C153.52 30.4415 153.524 30.4273 153.53 30.4112C153.537 30.3952 153.544 30.3829 153.549 30.3755C153.553 30.3684 153.553 30.3698 153.544 30.3791L154.976 31.7757L156.408 33.1724C157.131 32.4311 157.517 31.4889 157.517 30.4501H155.517ZM154.976 31.7757L153.544 30.3795C153.544 30.379 153.552 30.371 153.569 30.36C153.585 30.3489 153.604 30.3383 153.625 30.3299C153.645 30.3215 153.661 30.3178 153.668 30.3164C153.675 30.3152 153.67 30.3168 153.65 30.3168V32.3168V34.3168C154.688 34.3168 155.657 33.9422 156.408 33.1719L154.976 31.7757ZM166.859 48.0625H164.859V50.0625H166.859V48.0625ZM166.859 34.2377V32.2377H164.859V34.2377H166.859ZM169.97 34.2377H171.97V32.2377H169.97V34.2377ZM169.97 37.5113L168.14 38.3186L171.97 37.5113H169.97ZM169.564 36.5914H167.564V37.013L167.734 37.3987L169.564 36.5914ZM170.146 35.374L171.592 36.7557L171.599 36.7478L171.607 36.7397L170.146 35.374ZM171.701 34.3324L170.92 32.4915L170.91 32.4954L171.701 34.3324ZM176.436 34.4541L177.279 32.6407L177.279 32.6407L176.436 34.4541ZM178.303 36.2532L176.557 37.2293L176.561 37.2374L178.303 36.2532ZM179.006 48.0625V50.0625H181.006V48.0625H179.006ZM175.895 48.0625H173.895V50.0625H175.895V48.0625ZM175.043 37.6195L173.702 39.1037L173.714 39.115L173.727 39.1261L175.043 37.6195ZM171.498 37.1731L172.291 39.0095L172.299 39.0059L172.307 39.0022L171.498 37.1731ZM169.97 48.0625V50.0625H171.97V48.0625H169.97ZM166.859 48.0625H168.859V34.2377H166.859H164.859V48.0625H166.859ZM166.859 34.2377V36.2377H169.97V34.2377V32.2377H166.859V34.2377ZM169.97 34.2377H167.97V37.5113H169.97H171.97V34.2377H169.97ZM169.97 37.5113L171.8 36.704L171.394 35.7841L169.564 36.5914L167.734 37.3987L168.14 38.3186L169.97 37.5113ZM169.564 36.5914H171.564C171.564 36.6508 171.557 36.7053 171.546 36.7518C171.535 36.7976 171.522 36.829 171.514 36.8449C171.5 36.8736 171.509 36.8418 171.592 36.7557L170.146 35.374L168.7 33.9923C168.094 34.6258 167.564 35.5009 167.564 36.5914H169.564ZM170.146 35.374L171.607 36.7397C171.766 36.5695 172.036 36.3657 172.492 36.1693L171.701 34.3324L170.91 32.4954C170.068 32.8582 169.301 33.3488 168.685 34.0082L170.146 35.374ZM171.701 34.3324L172.483 36.1733C172.866 36.0108 173.326 35.913 173.893 35.913V33.913V31.913C172.854 31.913 171.854 32.0948 170.92 32.4915L171.701 34.3324ZM173.893 33.913V35.913C174.544 35.913 175.101 36.0388 175.592 36.2676L176.436 34.4541L177.279 32.6407C176.22 32.148 175.082 31.913 173.893 31.913V33.913ZM176.436 34.4541L175.592 36.2676C175.94 36.4294 176.267 36.7103 176.557 37.2293L178.303 36.2532L180.048 35.2772C179.401 34.1188 178.482 33.2003 177.279 32.6407L176.436 34.4541ZM178.303 36.2532L176.561 37.2374C176.798 37.6556 177.006 38.3952 177.006 39.6215H179.006H181.006C181.006 38.0161 180.745 36.5102 180.044 35.2691L178.303 36.2532ZM179.006 39.6215H177.006V48.0625H179.006H181.006V39.6215H179.006ZM179.006 48.0625V46.0625H175.895V48.0625V50.0625H179.006V48.0625ZM175.895 48.0625H177.895V40.2708H175.895H173.895V48.0625H175.895ZM175.895 40.2708H177.895C177.895 38.8024 177.583 37.1825 176.358 36.1129L175.043 37.6195L173.727 39.1261C173.681 39.0854 173.721 39.091 173.778 39.2663C173.837 39.4525 173.895 39.7716 173.895 40.2708H175.895ZM175.043 37.6195L176.383 36.1353C175.44 35.2835 174.284 34.862 173.027 34.862V36.862V38.862C173.339 38.862 173.527 38.9455 173.702 39.1037L175.043 37.6195ZM173.027 36.862V34.862C172.219 34.862 171.431 35.0159 170.689 35.344L171.498 37.1731L172.307 39.0022C172.503 38.9155 172.735 38.862 173.027 38.862V36.862ZM171.498 37.1731L170.706 35.3367C169.802 35.7267 169.122 36.3914 168.655 37.2054L170.389 38.2012L172.124 39.1969C172.215 39.037 172.275 39.0163 172.291 39.0095L171.498 37.1731ZM170.389 38.2012L168.655 37.2054C168.133 38.1143 167.97 39.1794 167.97 40.2167H169.97H171.97C171.97 39.5406 172.086 39.262 172.124 39.1969L170.389 38.2012ZM169.97 40.2167H167.97V48.0625H169.97H171.97V40.2167H169.97ZM169.97 48.0625V46.0625H166.859V48.0625V50.0625H169.97V48.0625ZM190.456 47.4132L189.012 48.7975L189.022 48.8074L190.456 47.4132ZM189.509 36.9702H191.509V34.9702H189.509V36.9702ZM186.614 36.9702H184.614V38.9702H186.614V36.9702ZM186.614 34.2377V32.2377H184.614V34.2377H186.614ZM189.509 34.2377V36.2377H191.509V34.2377H189.509ZM189.509 30.0172L188.646 28.2129L187.509 28.7568V30.0172H189.509ZM192.62 28.5292H194.62V25.3557L191.757 26.7249L192.62 28.5292ZM192.62 34.2377H190.62V36.2377H192.62V34.2377ZM197.328 34.2377H199.328V32.2377H197.328V34.2377ZM197.328 36.9702V38.9702H199.328V36.9702H197.328ZM192.62 36.9702V34.9702H190.62V36.9702H192.62ZM192.809 44.9107L191.034 45.8313L191.055 45.8712L191.077 45.9101L192.809 44.9107ZM193.432 45.4517L192.609 47.2745L192.643 47.2903L192.679 47.3047L193.432 45.4517ZM195.826 45.4517L196.417 47.3623L196.431 47.358L196.445 47.3535L195.826 45.4517ZM196.949 44.9783L198.931 45.2477L199.453 41.4048L196.019 43.2075L196.949 44.9783ZM196.57 47.7649L197.481 49.5454L198.411 49.0695L198.552 48.0343L196.57 47.7649ZM193.567 48.3872V46.3872C192.354 46.3872 191.972 46.1041 191.89 46.019L190.456 47.4132L189.022 48.8074C190.202 50.0209 191.894 50.3872 193.567 50.3872V48.3872ZM190.456 47.4132L191.899 46.029C191.726 45.8486 191.509 45.4777 191.509 44.6266H189.509H187.509C187.509 46.1743 187.923 47.6611 189.012 48.7974L190.456 47.4132ZM189.509 44.6266H191.509V36.9702H189.509H187.509V44.6266H189.509ZM189.509 36.9702V34.9702H186.614V36.9702V38.9702H189.509V36.9702ZM186.614 36.9702H188.614V34.2377H186.614H184.614V36.9702H186.614ZM186.614 34.2377V36.2377H189.509V34.2377V32.2377H186.614V34.2377ZM189.509 34.2377H191.509V30.0172H189.509H187.509V34.2377H189.509ZM189.509 30.0172L190.372 31.8215L193.483 30.3335L192.62 28.5292L191.757 26.7249L188.646 28.2129L189.509 30.0172ZM192.62 28.5292H190.62V34.2377H192.62H194.62V28.5292H192.62ZM192.62 34.2377V36.2377H197.328V34.2377V32.2377H192.62V34.2377ZM197.328 34.2377H195.328V36.9702H197.328H199.328V34.2377H197.328ZM197.328 36.9702V34.9702H192.62V36.9702V38.9702H197.328V36.9702ZM192.62 36.9702H190.62V44.0314H192.62H194.62V36.9702H192.62ZM192.62 44.0314H190.62C190.62 44.6162 190.728 45.2411 191.034 45.8313L192.809 44.9107L194.585 43.99C194.611 44.04 194.62 44.0759 194.623 44.0871C194.625 44.097 194.62 44.0809 194.62 44.0314H192.62ZM192.809 44.9107L191.077 45.9101C191.449 46.5547 192 46.9997 192.609 47.2745L193.432 45.4517L194.255 43.629C194.272 43.6368 194.32 43.6611 194.379 43.7126C194.44 43.7656 194.497 43.8334 194.542 43.9112L192.809 44.9107ZM193.432 45.4517L192.679 47.3047C193.296 47.5553 193.959 47.6276 194.568 47.6276V45.6276V43.6276C194.414 43.6276 194.307 43.6178 194.238 43.6072C194.168 43.5964 194.157 43.5875 194.184 43.5988L193.432 45.4517ZM194.568 45.6276V47.6276C195.197 47.6276 195.819 47.5474 196.417 47.3623L195.826 45.4517L195.235 43.5412C195.075 43.5905 194.859 43.6276 194.568 43.6276V45.6276ZM195.826 45.4517L196.445 47.3535C196.94 47.1924 197.418 46.9908 197.878 46.7491L196.949 44.9783L196.019 43.2075C195.758 43.3445 195.488 43.4586 195.207 43.55L195.826 45.4517ZM196.949 44.9783L194.967 44.7089L194.588 47.4955L196.57 47.7649L198.552 48.0343L198.931 45.2477L196.949 44.9783ZM196.57 47.7649L195.659 45.9844C195.442 46.0953 195.169 46.1958 194.824 46.2725L195.258 48.2248L195.692 50.1772C196.321 50.0374 196.922 49.8313 197.481 49.5454L196.57 47.7649ZM195.258 48.2248L194.824 46.2725C194.513 46.3416 194.1 46.3872 193.567 46.3872V48.3872V50.3872C194.314 50.3872 195.029 50.3245 195.692 50.1772L195.258 48.2248ZM208.141 47.5079L207.124 49.2297L207.124 49.2297L208.141 47.5079ZM205.842 45.0189L204.047 45.9013L204.051 45.9103L204.056 45.9193L205.842 45.0189ZM205.842 37.3354L204.05 36.4469L204.047 36.453L205.842 37.3354ZM208.141 34.8058L207.112 33.0908L208.141 34.8058ZM215.216 34.8058L214.187 36.5209L214.199 36.5277L215.216 34.8058ZM217.502 37.3219L215.705 38.1985L215.708 38.2043L217.502 37.3219ZM215.216 47.5079L216.234 49.2297L216.234 49.2297L215.216 47.5079ZM214.269 44.2478L215.856 45.4655L215.856 45.4655L214.269 44.2478ZM214.283 38.0524L212.674 39.2406L212.681 39.2494L214.283 38.0524ZM209.088 44.2478L207.511 45.477L207.511 45.477L209.088 44.2478ZM211.672 48.3872V46.3872C210.603 46.3872 209.791 46.1594 209.159 45.786L208.141 47.5079L207.124 49.2297C208.476 50.0287 210.018 50.3872 211.672 50.3872V48.3872ZM208.141 47.5079L209.159 45.786C208.511 45.4032 208.004 44.8654 207.628 44.1185L205.842 45.0189L204.056 45.9193C204.762 47.3187 205.788 48.4403 207.124 49.2297L208.141 47.5079ZM205.842 45.0189L207.637 44.1364C207.267 43.3855 207.044 42.4158 207.044 41.1636H205.044H203.044C203.044 42.8875 203.352 44.4879 204.047 45.9013L205.842 45.0189ZM205.044 41.1636H207.044C207.044 39.9337 207.266 38.9719 207.637 38.2179L205.842 37.3354L204.047 36.453C203.354 37.8633 203.044 39.4536 203.044 41.1636H205.044ZM205.842 37.3354L207.634 38.2239C208.014 37.4565 208.524 36.9085 209.17 36.5208L208.141 34.8058L207.112 33.0908C205.775 33.8935 204.752 35.032 204.05 36.4469L205.842 37.3354ZM208.141 34.8058L209.17 36.5208C209.8 36.1429 210.608 35.913 211.672 35.913V33.913V31.913C210.013 31.913 208.467 32.2784 207.112 33.0908L208.141 34.8058ZM211.672 33.913V35.913C212.748 35.913 213.559 36.1441 214.187 36.5208L215.216 34.8058L216.245 33.0908C214.889 32.2772 213.338 31.913 211.672 31.913V33.913ZM215.216 34.8058L214.199 36.5277C214.835 36.9036 215.335 37.4395 215.705 38.1984L217.502 37.3219L219.3 36.4453C218.606 35.0219 217.581 33.8804 216.234 33.084L215.216 34.8058ZM217.502 37.3219L215.708 38.2043C216.077 38.9568 216.3 39.9226 216.3 41.1636H218.3H220.3C220.3 39.4467 219.991 37.8513 219.297 36.4395L217.502 37.3219ZM218.3 41.1636H216.3C216.3 42.4047 216.077 43.3704 215.708 44.1229L217.502 45.0053L219.297 45.8878C219.991 44.4759 220.3 42.8805 220.3 41.1636H218.3ZM217.502 45.0053L215.708 44.1229C215.339 44.8727 214.839 45.4075 214.199 45.786L215.216 47.5079L216.234 49.2297C217.577 48.4359 218.602 47.3023 219.297 45.8878L217.502 45.0053ZM215.216 47.5079L214.199 45.786C213.569 46.1583 212.753 46.3872 211.672 46.3872V48.3872V50.3872C213.333 50.3872 214.88 50.0299 216.234 49.2297L215.216 47.5079ZM211.672 45.4112V47.4112C213.316 47.4112 214.818 46.8182 215.856 45.4655L214.269 44.2478L212.683 43.0302C212.53 43.2286 212.301 43.4112 211.672 43.4112V45.4112ZM214.269 44.2478L215.856 45.4655C216.792 44.2458 217.162 42.7478 217.162 41.1636H215.162H213.162C213.162 42.1406 212.937 42.6988 212.683 43.0302L214.269 44.2478ZM215.162 41.1636H217.162C217.162 39.5788 216.801 38.0807 215.885 36.8553L214.283 38.0524L212.681 39.2494C212.937 39.5931 213.162 40.1692 213.162 41.1636H215.162ZM214.283 38.0524L215.892 36.8641C214.861 35.4688 213.338 34.862 211.672 34.862V36.862V38.862C212.314 38.862 212.532 39.0487 212.674 39.2406L214.283 38.0524ZM211.672 36.862V34.862C210.025 34.862 208.539 35.4741 207.504 36.8185L209.088 38.0388L210.673 39.2591C210.846 39.0344 211.083 38.862 211.672 38.862V36.862ZM209.088 38.0388L207.504 36.8185C206.557 38.0482 206.182 39.5613 206.182 41.1636H208.182H210.182C210.182 40.1687 210.412 39.5986 210.673 39.2591L209.088 38.0388ZM208.182 41.1636H206.182C206.182 42.754 206.56 44.2564 207.511 45.477L209.088 44.2478L210.666 43.0187C210.409 42.6881 210.182 42.1344 210.182 41.1636H208.182ZM209.088 44.2478L207.511 45.477C208.549 46.8101 210.033 47.4112 211.672 47.4112V45.4112V43.4112C211.074 43.4112 210.836 43.2367 210.666 43.0187L209.088 44.2478ZM229.534 48.0625L227.67 48.7883L228.166 50.0625H229.534V48.0625ZM224.15 34.2377V32.2377H221.225L222.286 34.9635L224.15 34.2377ZM227.478 34.2377L229.357 33.5533L228.878 32.2377H227.478V34.2377ZM230.67 43.0033L228.791 43.6877L228.794 43.6967L228.797 43.7056L230.67 43.0033ZM230.886 43.6662L232.812 43.1269L232.812 43.1269L230.886 43.6662ZM231.076 44.4913L229.113 44.8731L233.049 44.8201L231.076 44.4913ZM231.252 43.6662L229.347 43.0566L229.336 43.0916L229.326 43.1269L231.252 43.6662ZM231.482 43.0033L233.354 43.7056L233.359 43.6941L233.363 43.6826L231.482 43.0033ZM234.647 34.2377V32.2377H233.243L232.766 33.5584L234.647 34.2377ZM237.948 34.2377L239.811 34.9635L240.873 32.2377H237.948V34.2377ZM232.564 48.0625V50.0625H233.931L234.427 48.7883L232.564 48.0625ZM229.534 48.0625L231.397 47.3367L226.014 33.5119L224.15 34.2377L222.286 34.9635L227.67 48.7883L229.534 48.0625ZM224.15 34.2377V36.2377H227.478V34.2377V32.2377H224.15V34.2377ZM227.478 34.2377L225.598 34.9221L228.791 43.6877L230.67 43.0033L232.549 42.3189L229.357 33.5533L227.478 34.2377ZM230.67 43.0033L228.797 43.7056C228.858 43.8678 228.913 44.0343 228.961 44.2054L230.886 43.6662L232.812 43.1269C232.734 42.8471 232.644 42.5717 232.543 42.3011L230.67 43.0033ZM230.886 43.6662L228.961 44.2054C229.005 44.3626 229.056 44.5817 229.113 44.8731L231.076 44.4913L233.039 44.1096C232.969 43.7516 232.895 43.4206 232.812 43.1269L230.886 43.6662ZM231.076 44.4913L233.049 44.8201C233.095 44.5404 233.14 44.3402 233.178 44.2054L231.252 43.6662L229.326 43.1269C229.237 43.443 229.165 43.7929 229.103 44.1625L231.076 44.4913ZM231.252 43.6662L233.157 44.2757C233.219 44.0807 233.285 43.8906 233.354 43.7056L231.482 43.0033L229.609 42.3011C229.516 42.5489 229.429 42.8007 229.347 43.0566L231.252 43.6662ZM231.482 43.0033L233.363 43.6826L236.528 34.917L234.647 34.2377L232.766 33.5584L229.601 42.324L231.482 43.0033ZM234.647 34.2377V36.2377H237.948V34.2377V32.2377H234.647V34.2377ZM237.948 34.2377L236.084 33.5119L230.7 47.3367L232.564 48.0625L234.427 48.7883L239.811 34.9635L237.948 34.2377ZM232.564 48.0625V46.0625H229.534V48.0625V50.0625H232.564V48.0625ZM248.992 48.0625H246.992V50.0625H248.992V48.0625ZM248.992 34.2377V32.2377H246.992V34.2377H248.992ZM252.103 34.2377H254.103V32.2377H252.103V34.2377ZM252.103 48.0625V50.0625H254.103V48.0625H252.103ZM245.177 48.0625H243.177V50.0625H245.177V48.0625ZM245.177 45.33V43.33H243.177V45.33H245.177ZM255.917 45.33H257.917V43.33H255.917V45.33ZM255.917 48.0625V50.0625H257.917V48.0625H255.917ZM245.177 36.9702H243.177V38.9702H245.177V36.9702ZM245.177 34.2377V32.2377H243.177V34.2377H245.177ZM251.021 34.2377H253.021V32.2377H251.021V34.2377ZM251.021 36.9702V38.9702H253.021V36.9702H251.021ZM249.222 31.7757L247.772 33.1542L247.79 33.1723L247.807 33.1899L249.222 31.7757ZM249.222 29.1515L247.807 27.7372L247.807 27.7372L249.222 29.1515ZM251.859 29.1515L250.427 30.5477L250.445 30.5658L250.463 30.5835L251.859 29.1515ZM251.859 31.7757L250.428 30.3791L250.427 30.3795L251.859 31.7757ZM248.992 48.0625H250.992V34.2377H248.992H246.992V48.0625H248.992ZM248.992 34.2377V36.2377H252.103V34.2377V32.2377H248.992V34.2377ZM252.103 34.2377H250.103V48.0625H252.103H254.103V34.2377H252.103ZM252.103 48.0625V46.0625H248.992V48.0625V50.0625H252.103V48.0625ZM245.177 48.0625H247.177V45.33H245.177H243.177V48.0625H245.177ZM245.177 45.33V47.33H255.917V45.33V43.33H245.177V45.33ZM255.917 45.33H253.917V48.0625H255.917H257.917V45.33H255.917ZM255.917 48.0625V46.0625H245.177V48.0625V50.0625H255.917V48.0625ZM245.177 36.9702H247.177V34.2377H245.177H243.177V36.9702H245.177ZM245.177 34.2377V36.2377H251.021V34.2377V32.2377H245.177V34.2377ZM251.021 34.2377H249.021V36.9702H251.021H253.021V34.2377H251.021ZM251.021 36.9702V34.9702H245.177V36.9702V38.9702H251.021V36.9702ZM250.534 32.3168V30.3168C250.523 30.3168 250.524 30.3159 250.535 30.318C250.547 30.3202 250.563 30.3246 250.583 30.3326C250.602 30.3405 250.618 30.3495 250.629 30.357C250.64 30.3644 250.642 30.3674 250.636 30.3615L249.222 31.7757L247.807 33.1899C248.546 33.929 249.494 34.3168 250.534 34.3168V32.3168ZM249.222 31.7757L250.671 30.3973C250.663 30.389 250.663 30.388 250.668 30.3949C250.672 30.4021 250.678 30.4133 250.684 30.4275C250.69 30.4417 250.693 30.4534 250.694 30.4602C250.695 30.4667 250.694 30.4642 250.694 30.4501H248.694H246.694C246.694 31.473 247.064 32.4096 247.772 33.1542L249.222 31.7757ZM248.694 30.4501H250.694C250.694 30.4359 250.695 30.4351 250.693 30.4449C250.691 30.4552 250.687 30.4721 250.679 30.4926C250.67 30.5133 250.66 30.5318 250.65 30.5464C250.641 30.5609 250.634 30.5671 250.636 30.5657L249.222 29.1515L247.807 27.7372C247.067 28.4778 246.694 29.4254 246.694 30.4501H248.694ZM249.222 29.1515L250.636 30.5657C250.642 30.5598 250.64 30.5628 250.629 30.5701C250.618 30.5777 250.602 30.5866 250.583 30.5946C250.563 30.6025 250.547 30.607 250.535 30.6092C250.524 30.6113 250.523 30.6104 250.534 30.6104V28.6104V26.6104C249.494 26.6104 248.546 26.9982 247.807 27.7372L249.222 29.1515ZM250.534 28.6104V30.6104C250.553 30.6104 250.559 30.612 250.552 30.6107C250.544 30.6094 250.529 30.6057 250.508 30.5973C250.488 30.5889 250.468 30.5783 250.452 30.5672C250.436 30.5562 250.428 30.5482 250.427 30.5477L251.859 29.1515L253.291 27.7553C252.54 26.9849 251.571 26.6104 250.534 26.6104V28.6104ZM251.859 29.1515L250.463 30.5835C250.466 30.586 250.46 30.5805 250.45 30.5659C250.439 30.5511 250.428 30.5317 250.419 30.5091C250.41 30.4866 250.404 30.4673 250.402 30.454C250.399 30.4411 250.4 30.4389 250.4 30.4501H252.4H254.4C254.4 29.4091 254.011 28.4561 253.256 27.7195L251.859 29.1515ZM252.4 30.4501H250.4C250.4 30.4612 250.399 30.4607 250.401 30.4513C250.403 30.4415 250.407 30.4273 250.413 30.4112C250.42 30.3952 250.427 30.3829 250.432 30.3755C250.437 30.3684 250.437 30.3698 250.428 30.3791L251.859 31.7757L253.291 33.1724C254.014 32.4311 254.4 31.4889 254.4 30.4501H252.4ZM251.859 31.7757L250.427 30.3795C250.428 30.379 250.436 30.371 250.452 30.36C250.468 30.3489 250.488 30.3383 250.508 30.3299C250.529 30.3215 250.544 30.3178 250.552 30.3164C250.559 30.3152 250.553 30.3168 250.534 30.3168V32.3168V34.3168C251.571 34.3168 252.54 33.9422 253.291 33.1719L251.859 31.7757ZM266.556 47.4944L265.508 49.1982L265.517 49.2038L265.527 49.2093L266.556 47.4944ZM264.283 44.9648L262.48 45.8293L262.484 45.8383L262.488 45.8472L264.283 44.9648ZM264.31 37.2813L266.096 38.1817L266.099 38.1757L264.31 37.2813ZM266.596 34.7923L267.609 36.517L267.614 36.5142L266.596 34.7923ZM275.294 36.7673L273.543 37.733L273.546 37.7393L273.55 37.7455L275.294 36.7673ZM276.092 41.3259L278.092 41.38L278.092 41.38L276.092 41.3259ZM275.998 42.354V44.354H277.713L277.974 42.6581L275.998 42.354ZM265.879 42.354H263.879V44.354H265.879V42.354ZM265.879 39.7027V37.7027H263.879V39.7027H265.879ZM273.049 39.7027V41.7027H275.234L275.041 39.5262L273.049 39.7027ZM271.452 36.9702L270.543 38.7514L270.558 38.7591L270.573 38.7666L271.452 36.9702ZM267.34 37.8359L265.714 36.6717L265.71 36.6778L265.705 36.684L267.34 37.8359ZM267.448 44.3831L265.85 45.5858L265.858 45.5955L265.865 45.605L267.448 44.3831ZM273.184 44.2749L274.637 42.901L273.167 41.345L271.714 42.9183L273.184 44.2749ZM275.051 46.2499L276.527 47.5994L277.781 46.2272L276.504 44.876L275.051 46.2499ZM272.94 47.792L272.078 45.9877L272.07 45.9914L272.94 47.792ZM270.1 48.3872V46.3872C269.024 46.3872 268.212 46.1561 267.585 45.7794L266.556 47.4944L265.527 49.2093C266.883 50.023 268.434 50.3872 270.1 50.3872V48.3872ZM266.556 47.4944L267.603 45.7905C266.957 45.3932 266.451 44.8417 266.078 44.0823L264.283 44.9648L262.488 45.8472C263.179 47.2522 264.189 48.3871 265.508 49.1982L266.556 47.4944ZM264.283 44.9648L266.087 44.1003C265.717 43.3291 265.498 42.3594 265.498 41.1366H263.498H261.498C261.498 42.8356 261.803 44.4181 262.48 45.8293L264.283 44.9648ZM263.498 41.1366H265.498C265.498 39.8771 265.726 38.9155 266.096 38.1817L264.31 37.2813L262.524 36.3809C261.812 37.7935 261.498 39.402 261.498 41.1366H263.498ZM264.31 37.2813L266.099 38.1757C266.478 37.4173 266.98 36.886 267.609 36.517L266.596 34.7923L265.584 33.0676C264.246 33.8529 263.224 34.981 262.521 36.3869L264.31 37.2813ZM266.596 34.7923L267.614 36.5142C268.249 36.1384 269.054 35.913 270.1 35.913V33.913V31.913C268.458 31.913 266.927 32.2738 265.579 33.0705L266.596 34.7923ZM270.1 33.913V35.913C270.917 35.913 271.61 36.0833 272.214 36.3946L273.13 34.6165L274.045 32.8383C272.828 32.2117 271.5 31.913 270.1 31.913V33.913ZM273.13 34.6165L272.214 36.3946C272.745 36.6679 273.187 37.0883 273.543 37.733L275.294 36.7673L277.046 35.8016C276.337 34.5164 275.336 33.5029 274.045 32.8383L273.13 34.6165ZM275.294 36.7673L273.55 37.7455C273.874 38.3245 274.106 39.1897 274.106 40.4602H276.106H278.106C278.106 38.7367 277.796 37.1399 277.039 35.7891L275.294 36.7673ZM276.106 40.4602H274.106C274.106 40.6805 274.102 40.9502 274.093 41.2719L276.092 41.3259L278.092 41.38C278.101 41.0344 278.106 40.7269 278.106 40.4602H276.106ZM276.092 41.3259L274.093 41.2719C274.086 41.5165 274.063 41.7756 274.021 42.0499L275.998 42.354L277.974 42.6581C278.04 42.229 278.08 41.8027 278.092 41.38L276.092 41.3259ZM275.998 42.354V40.354H265.879V42.354V44.354H275.998V42.354ZM265.879 42.354H267.879V39.7027H265.879H263.879V42.354H265.879ZM265.879 39.7027V41.7027H273.049V39.7027V37.7027H265.879V39.7027ZM273.049 39.7027L275.041 39.5262C274.958 38.5961 274.716 37.6775 274.206 36.8796L272.521 37.9577L270.837 39.0358C270.903 39.1397 271.013 39.3844 271.056 39.8792L273.049 39.7027ZM272.521 37.9577L274.206 36.8796C273.747 36.1624 273.127 35.5631 272.332 35.1738L271.452 36.9702L270.573 38.7666C270.625 38.7921 270.718 38.8511 270.837 39.0358L272.521 37.9577ZM271.452 36.9702L272.362 35.189C271.655 34.8281 270.892 34.6455 270.1 34.6455V36.6455V38.6455C270.263 38.6455 270.402 38.6794 270.543 38.7514L271.452 36.9702ZM270.1 36.6455V34.6455C268.398 34.6455 266.768 35.1999 265.714 36.6717L267.34 37.8359L268.966 39.0002C269.049 38.8847 269.258 38.6455 270.1 38.6455V36.6455ZM267.34 37.8359L265.705 36.684C264.829 37.9278 264.501 39.4634 264.501 41.0825H266.501H268.501C268.501 39.96 268.733 39.3312 268.975 38.9878L267.34 37.8359ZM266.501 41.0825H264.501C264.501 42.7487 264.89 44.3097 265.85 45.5858L267.448 44.3831L269.046 43.1804C268.744 42.7792 268.501 42.1396 268.501 41.0825H266.501ZM267.448 44.3831L265.865 45.605C266.923 46.9755 268.428 47.6276 270.127 47.6276V45.6276V43.6276C269.535 43.6276 269.255 43.45 269.032 43.1612L267.448 44.3831ZM270.127 45.6276V47.6276C270.979 47.6276 271.811 47.4763 272.591 47.136L271.791 45.3029L270.991 43.4699C270.779 43.5625 270.501 43.6276 270.127 43.6276V45.6276ZM271.791 45.3029L272.591 47.136C273.382 46.7908 274.066 46.2679 274.654 45.6314L273.184 44.2749L271.714 42.9183C271.436 43.2198 271.192 43.3822 270.991 43.4699L271.791 45.3029ZM273.184 44.2749L271.73 45.6487L273.597 47.6237L275.051 46.2499L276.504 44.876L274.637 42.901L273.184 44.2749ZM275.051 46.2499L273.575 44.9003C273.183 45.3282 272.693 45.6933 272.078 45.9877L272.94 47.792L273.803 49.5962C274.847 49.097 275.764 48.4341 276.527 47.5994L275.051 46.2499ZM272.94 47.792L272.07 45.9914C271.565 46.2356 270.924 46.3872 270.1 46.3872V48.3872V50.3872C271.421 50.3872 272.675 50.1419 273.811 49.5925L272.94 47.792ZM284.796 48.0625L282.859 48.5592L283.244 50.0625H284.796V48.0625ZM281.252 34.2377V32.2377H278.674L279.314 34.7343L281.252 34.2377ZM284.066 34.2377L286.007 33.7578L285.631 32.2377H284.066V34.2377ZM285.824 41.353L283.882 41.8329L283.887 41.853L283.893 41.8729L285.824 41.353ZM285.973 42.0294L284 42.3582L284.008 42.4064L284.018 42.4542L285.973 42.0294ZM286.095 42.7057L284.116 42.9988L288.067 43.0345L286.095 42.7057ZM286.203 42.0023L284.232 41.6596L284.226 41.6958L284.221 41.7321L286.203 42.0023ZM286.338 41.3259L284.39 40.8724L284.388 40.8822L284.386 40.8921L286.338 41.3259ZM287.988 34.2377V32.2377H286.401L286.04 33.7842L287.988 34.2377ZM290.369 34.2377L292.317 33.7858L291.958 32.2377H290.369V34.2377ZM292.02 41.353L290.071 41.8049L290.073 41.8123L290.075 41.8197L292.02 41.353ZM292.168 42.0158L290.21 42.4237L290.21 42.4237L292.168 42.0158ZM292.29 42.7328L290.309 43.006L294.261 43.0726L292.29 42.7328ZM292.561 41.353L294.497 41.8549L294.501 41.837L294.506 41.8189L292.561 41.353ZM294.265 34.2377V32.2377H292.688L292.32 33.7718L294.265 34.2377ZM297.106 34.2377L299.042 34.7379L299.688 32.2377H297.106V34.2377ZM293.535 48.0625V50.0625H295.084L295.471 48.5627L293.535 48.0625ZM291.154 48.0625L289.205 48.5117L289.562 50.0625H291.154V48.0625ZM289.558 41.1366L291.506 40.6874L291.506 40.6868L289.558 41.1366ZM289.368 40.2438L287.405 40.6268L287.407 40.636L289.368 40.2438ZM289.179 39.2428L291.147 38.885L287.211 38.885L289.179 39.2428ZM288.976 40.2438L290.927 40.6828L290.929 40.6726L288.976 40.2438ZM288.773 41.1366L286.824 40.6868L286.822 40.6944L286.821 40.7019L288.773 41.1366ZM287.231 48.0625V50.0625H288.835L289.183 48.4972L287.231 48.0625ZM284.796 48.0625L286.733 47.5658L283.189 33.741L281.252 34.2377L279.314 34.7343L282.859 48.5592L284.796 48.0625ZM281.252 34.2377V36.2377H284.066V34.2377V32.2377H281.252V34.2377ZM284.066 34.2377L282.124 34.7175L283.882 41.8329L285.824 41.353L287.766 40.8731L286.007 33.7578L284.066 34.2377ZM285.824 41.353L283.893 41.8729C283.941 42.051 283.976 42.2124 284 42.3582L285.973 42.0294L287.946 41.7006C287.898 41.4134 287.834 41.124 287.755 40.8331L285.824 41.353ZM285.973 42.0294L284.018 42.4542C284.053 42.6118 284.086 42.7927 284.116 42.9988L286.095 42.7057L288.073 42.4126C288.031 42.1317 287.983 41.8618 287.927 41.6045L285.973 42.0294ZM286.095 42.7057L288.067 43.0345C288.115 42.7511 288.154 42.4961 288.184 42.2725L286.203 42.0023L284.221 41.7321C284.198 41.9053 284.165 42.1193 284.122 42.3769L286.095 42.7057ZM286.203 42.0023L288.173 42.345C288.203 42.173 288.242 41.9784 288.29 41.7598L286.338 41.3259L284.386 40.8921C284.326 41.1605 284.275 41.4167 284.232 41.6596L286.203 42.0023ZM286.338 41.3259L288.286 41.7795L289.936 34.6912L287.988 34.2377L286.04 33.7842L284.39 40.8724L286.338 41.3259ZM287.988 34.2377V36.2377H290.369V34.2377V32.2377H287.988V34.2377ZM290.369 34.2377L288.421 34.6896L290.071 41.8049L292.02 41.353L293.968 40.9011L292.317 33.7858L290.369 34.2377ZM292.02 41.353L290.075 41.8197C290.124 42.0266 290.17 42.2279 290.21 42.4237L292.168 42.0158L294.126 41.6079C294.077 41.3709 294.023 41.1303 293.964 40.8863L292.02 41.353ZM292.168 42.0158L290.21 42.4237C290.245 42.588 290.278 42.7813 290.309 43.006L292.29 42.7328L294.271 42.4595C294.23 42.1612 294.182 41.8765 294.126 41.6079L292.168 42.0158ZM292.29 42.7328L294.261 43.0726C294.306 42.8118 294.346 42.5783 294.382 42.372L292.412 42.0294L290.441 41.6867C290.405 41.8953 290.364 42.1307 290.319 42.393L292.29 42.7328ZM292.412 42.0294L294.382 42.372C294.407 42.2272 294.445 42.0556 294.497 41.8549L292.561 41.353L290.625 40.8511C290.55 41.1374 290.488 41.4166 290.441 41.6867L292.412 42.0294ZM292.561 41.353L294.506 41.8189L296.21 34.7036L294.265 34.2377L292.32 33.7718L290.616 40.8871L292.561 41.353ZM294.265 34.2377V36.2377H297.106V34.2377V32.2377H294.265V34.2377ZM297.106 34.2377L295.169 33.7375L291.598 47.5623L293.535 48.0625L295.471 48.5627L299.042 34.7379L297.106 34.2377ZM293.535 48.0625V46.0625H291.154V48.0625V50.0625H293.535V48.0625ZM291.154 48.0625L293.103 47.6133L291.506 40.6874L289.558 41.1366L287.609 41.5857L289.205 48.5117L291.154 48.0625ZM289.558 41.1366L291.506 40.6868C291.458 40.4786 291.399 40.2019 291.329 39.8515L289.368 40.2438L287.407 40.636C287.481 41.0071 287.549 41.3256 287.609 41.5863L289.558 41.1366ZM289.368 40.2438L291.331 39.8607C291.26 39.4975 291.199 39.1724 291.147 38.885L289.179 39.2428L287.211 39.6005C287.267 39.9083 287.332 40.2506 287.405 40.6268L289.368 40.2438ZM289.179 39.2428L287.211 38.885C287.162 39.1538 287.1 39.4632 287.022 39.815L288.976 40.2438L290.929 40.6726C291.014 40.2848 291.087 39.9269 291.147 39.6005L289.179 39.2428ZM288.976 40.2438L287.025 39.8047C286.944 40.1636 286.877 40.4573 286.824 40.6868L288.773 41.1366L290.722 41.5863C290.777 41.3469 290.846 41.0454 290.927 40.6828L288.976 40.2438ZM288.773 41.1366L286.821 40.7019L285.279 47.6278L287.231 48.0625L289.183 48.4972L290.725 41.5712L288.773 41.1366ZM287.231 48.0625V46.0625H284.796V48.0625V50.0625H287.231V48.0625Z" fill="url(#paint1_linear_572_399)" mask="url(#path-13-outside-1_572_399)"/>
<g filter="url(#filter2_f_572_399)">
<mask id="path-15-outside-2_572_399" maskUnits="userSpaceOnUse" x="145.76" y="25.0625" width="154" height="26" fill="black">
<rect fill="white" x="145.76" y="25.0625" width="154" height="26"/>
<path d="M152.005 48.0625V34.2377H155.116V48.0625H152.005ZM148.19 48.0625V45.33H158.931V48.0625H148.19ZM148.19 36.9702V34.2377H154.034V36.9702H148.19ZM153.547 32.3168C153.033 32.3168 152.595 32.1365 152.235 31.7757C151.883 31.406 151.707 30.9641 151.707 30.4501C151.707 29.936 151.883 29.5032 152.235 29.1515C152.595 28.7907 153.033 28.6104 153.547 28.6104C154.079 28.6104 154.521 28.7907 154.872 29.1515C155.233 29.5032 155.414 29.936 155.414 30.4501C155.414 30.9641 155.233 31.406 154.872 31.7757C154.521 32.1365 154.079 32.3168 153.547 32.3168ZM166.755 48.0625V34.2377H169.866V37.5113L169.46 36.5914C169.46 36.1856 169.654 35.7798 170.042 35.374C170.43 34.9591 170.948 34.6119 171.598 34.3324C172.256 34.0528 172.987 33.913 173.789 33.913C174.709 33.913 175.557 34.0934 176.332 34.4541C177.108 34.8148 177.73 35.4146 178.199 36.2532C178.668 37.0829 178.902 38.2057 178.902 39.6215V48.0625H175.791V40.2708C175.791 38.9993 175.507 38.1155 174.939 37.6195C174.38 37.1145 173.708 36.862 172.923 36.862C172.373 36.862 171.864 36.9657 171.395 37.1731C170.935 37.3715 170.565 37.7142 170.286 38.2012C170.006 38.6881 169.866 39.36 169.866 40.2167V48.0625H166.755ZM193.463 48.3872C192.021 48.3872 190.983 48.0625 190.352 47.4132C189.721 46.7549 189.405 45.826 189.405 44.6266V36.9702H186.51V34.2377H189.405V30.0172L192.517 28.5292V34.2377H197.224V36.9702H192.517V44.0314C192.517 44.3741 192.58 44.6672 192.706 44.9107C192.841 45.1451 193.049 45.3255 193.328 45.4517C193.617 45.569 193.996 45.6276 194.464 45.6276C194.924 45.6276 195.344 45.569 195.723 45.4517C196.11 45.3255 196.485 45.1677 196.845 44.9783L196.467 47.7649C196.079 47.9633 195.641 48.1166 195.154 48.2248C194.667 48.333 194.104 48.3872 193.463 48.3872ZM211.569 48.3872C210.207 48.3872 209.03 48.0941 208.038 47.5079C207.046 46.9217 206.279 46.092 205.738 45.0189C205.206 43.9367 204.94 42.6516 204.94 41.1636C204.94 39.6937 205.206 38.4176 205.738 37.3354C206.279 36.2442 207.046 35.401 208.038 34.8058C209.03 34.2106 210.207 33.913 211.569 33.913C212.939 33.913 214.121 34.2106 215.113 34.8058C216.105 35.392 216.867 36.2307 217.399 37.3219C217.931 38.4041 218.197 39.6846 218.197 41.1636C218.197 42.6426 217.931 43.9232 217.399 45.0053C216.867 46.0875 216.105 46.9217 215.113 47.5079C214.121 48.0941 212.939 48.3872 211.569 48.3872ZM211.569 45.4112C212.705 45.4112 213.571 45.0234 214.166 44.2478C214.761 43.4723 215.059 42.4442 215.059 41.1636C215.059 39.874 214.766 38.8369 214.179 38.0524C213.593 37.2588 212.723 36.862 211.569 36.862C210.45 36.862 209.589 37.2543 208.985 38.0388C208.381 38.8234 208.079 39.865 208.079 41.1636C208.079 42.4442 208.381 43.4723 208.985 44.2478C209.589 45.0234 210.45 45.4112 211.569 45.4112ZM229.43 48.0625L224.046 34.2377H227.374L230.566 43.0033C230.648 43.2198 230.72 43.4407 230.783 43.6662C230.846 43.8916 230.909 44.1667 230.972 44.4913C231.026 44.1667 231.085 43.8916 231.148 43.6662C231.22 43.4407 231.297 43.2198 231.378 43.0033L234.543 34.2377H237.844L232.46 48.0625H229.43ZM248.888 48.0625V34.2377H251.999V48.0625H248.888ZM245.073 48.0625V45.33H255.814V48.0625H245.073ZM245.073 36.9702V34.2377H250.917V36.9702H245.073ZM250.43 32.3168C249.916 32.3168 249.479 32.1365 249.118 31.7757C248.766 31.406 248.59 30.9641 248.59 30.4501C248.59 29.936 248.766 29.5032 249.118 29.1515C249.479 28.7907 249.916 28.6104 250.43 28.6104C250.962 28.6104 251.404 28.7907 251.756 29.1515C252.117 29.5032 252.297 29.936 252.297 30.4501C252.297 30.9641 252.117 31.406 251.756 31.7757C251.404 32.1365 250.962 32.3168 250.43 32.3168ZM269.996 48.3872C268.625 48.3872 267.444 48.0896 266.452 47.4944C265.469 46.8901 264.712 46.0469 264.179 44.9648C263.656 43.8736 263.395 42.5975 263.395 41.1366C263.395 39.6396 263.665 38.3545 264.207 37.2813C264.748 36.1991 265.51 35.3695 266.493 34.7923C267.485 34.2061 268.652 33.913 269.996 33.913C271.105 33.913 272.115 34.1475 273.026 34.6165C273.937 35.0854 274.659 35.8023 275.191 36.7673C275.732 37.7322 276.002 38.9632 276.002 40.4602C276.002 40.7037 275.998 40.9923 275.989 41.3259C275.98 41.6596 275.948 42.0023 275.894 42.354H265.776V39.7027H272.945C272.882 38.9902 272.706 38.4086 272.418 37.9577C272.129 37.5068 271.773 37.1776 271.349 36.9702C270.925 36.7538 270.474 36.6455 269.996 36.6455C268.725 36.6455 267.805 37.0423 267.237 37.8359C266.678 38.6295 266.398 39.7117 266.398 41.0825C266.398 42.4442 266.714 43.5444 267.345 44.3831C267.985 45.2128 268.878 45.6276 270.023 45.6276C270.636 45.6276 271.191 45.5194 271.687 45.3029C272.183 45.0865 272.648 44.7438 273.08 44.2749L274.947 46.2499C274.37 46.8811 273.667 47.3952 272.837 47.792C272.016 48.1888 271.069 48.3872 269.996 48.3872ZM284.692 48.0625L281.148 34.2377H283.962L285.721 41.353C285.784 41.5875 285.833 41.8129 285.869 42.0294C285.914 42.2368 285.955 42.4622 285.991 42.7057C286.036 42.4352 286.072 42.2007 286.099 42.0023C286.135 41.7949 286.18 41.5694 286.235 41.3259L287.885 34.2377H290.266L291.916 41.353C291.97 41.5785 292.02 41.7994 292.065 42.0158C292.11 42.2323 292.15 42.4713 292.187 42.7328C292.232 42.4713 292.272 42.2368 292.308 42.0294C292.344 41.8219 292.394 41.5965 292.457 41.353L294.162 34.2377H297.002L293.431 48.0625H291.05L289.454 41.1366C289.4 40.9021 289.337 40.6045 289.265 40.2438C289.193 39.874 289.129 39.5404 289.075 39.2428C289.021 39.5404 288.954 39.874 288.872 40.2438C288.791 40.6045 288.724 40.9021 288.669 41.1366L287.127 48.0625H284.692Z"/>
</mask>
<path d="M152.005 48.0625V34.2377H155.116V48.0625H152.005ZM148.19 48.0625V45.33H158.931V48.0625H148.19ZM148.19 36.9702V34.2377H154.034V36.9702H148.19ZM153.547 32.3168C153.033 32.3168 152.595 32.1365 152.235 31.7757C151.883 31.406 151.707 30.9641 151.707 30.4501C151.707 29.936 151.883 29.5032 152.235 29.1515C152.595 28.7907 153.033 28.6104 153.547 28.6104C154.079 28.6104 154.521 28.7907 154.872 29.1515C155.233 29.5032 155.414 29.936 155.414 30.4501C155.414 30.9641 155.233 31.406 154.872 31.7757C154.521 32.1365 154.079 32.3168 153.547 32.3168ZM166.755 48.0625V34.2377H169.866V37.5113L169.46 36.5914C169.46 36.1856 169.654 35.7798 170.042 35.374C170.43 34.9591 170.948 34.6119 171.598 34.3324C172.256 34.0528 172.987 33.913 173.789 33.913C174.709 33.913 175.557 34.0934 176.332 34.4541C177.108 34.8148 177.73 35.4146 178.199 36.2532C178.668 37.0829 178.902 38.2057 178.902 39.6215V48.0625H175.791V40.2708C175.791 38.9993 175.507 38.1155 174.939 37.6195C174.38 37.1145 173.708 36.862 172.923 36.862C172.373 36.862 171.864 36.9657 171.395 37.1731C170.935 37.3715 170.565 37.7142 170.286 38.2012C170.006 38.6881 169.866 39.36 169.866 40.2167V48.0625H166.755ZM193.463 48.3872C192.021 48.3872 190.983 48.0625 190.352 47.4132C189.721 46.7549 189.405 45.826 189.405 44.6266V36.9702H186.51V34.2377H189.405V30.0172L192.517 28.5292V34.2377H197.224V36.9702H192.517V44.0314C192.517 44.3741 192.58 44.6672 192.706 44.9107C192.841 45.1451 193.049 45.3255 193.328 45.4517C193.617 45.569 193.996 45.6276 194.464 45.6276C194.924 45.6276 195.344 45.569 195.723 45.4517C196.11 45.3255 196.485 45.1677 196.845 44.9783L196.467 47.7649C196.079 47.9633 195.641 48.1166 195.154 48.2248C194.667 48.333 194.104 48.3872 193.463 48.3872ZM211.569 48.3872C210.207 48.3872 209.03 48.0941 208.038 47.5079C207.046 46.9217 206.279 46.092 205.738 45.0189C205.206 43.9367 204.94 42.6516 204.94 41.1636C204.94 39.6937 205.206 38.4176 205.738 37.3354C206.279 36.2442 207.046 35.401 208.038 34.8058C209.03 34.2106 210.207 33.913 211.569 33.913C212.939 33.913 214.121 34.2106 215.113 34.8058C216.105 35.392 216.867 36.2307 217.399 37.3219C217.931 38.4041 218.197 39.6846 218.197 41.1636C218.197 42.6426 217.931 43.9232 217.399 45.0053C216.867 46.0875 216.105 46.9217 215.113 47.5079C214.121 48.0941 212.939 48.3872 211.569 48.3872ZM211.569 45.4112C212.705 45.4112 213.571 45.0234 214.166 44.2478C214.761 43.4723 215.059 42.4442 215.059 41.1636C215.059 39.874 214.766 38.8369 214.179 38.0524C213.593 37.2588 212.723 36.862 211.569 36.862C210.45 36.862 209.589 37.2543 208.985 38.0388C208.381 38.8234 208.079 39.865 208.079 41.1636C208.079 42.4442 208.381 43.4723 208.985 44.2478C209.589 45.0234 210.45 45.4112 211.569 45.4112ZM229.43 48.0625L224.046 34.2377H227.374L230.566 43.0033C230.648 43.2198 230.72 43.4407 230.783 43.6662C230.846 43.8916 230.909 44.1667 230.972 44.4913C231.026 44.1667 231.085 43.8916 231.148 43.6662C231.22 43.4407 231.297 43.2198 231.378 43.0033L234.543 34.2377H237.844L232.46 48.0625H229.43ZM248.888 48.0625V34.2377H251.999V48.0625H248.888ZM245.073 48.0625V45.33H255.814V48.0625H245.073ZM245.073 36.9702V34.2377H250.917V36.9702H245.073ZM250.43 32.3168C249.916 32.3168 249.479 32.1365 249.118 31.7757C248.766 31.406 248.59 30.9641 248.59 30.4501C248.59 29.936 248.766 29.5032 249.118 29.1515C249.479 28.7907 249.916 28.6104 250.43 28.6104C250.962 28.6104 251.404 28.7907 251.756 29.1515C252.117 29.5032 252.297 29.936 252.297 30.4501C252.297 30.9641 252.117 31.406 251.756 31.7757C251.404 32.1365 250.962 32.3168 250.43 32.3168ZM269.996 48.3872C268.625 48.3872 267.444 48.0896 266.452 47.4944C265.469 46.8901 264.712 46.0469 264.179 44.9648C263.656 43.8736 263.395 42.5975 263.395 41.1366C263.395 39.6396 263.665 38.3545 264.207 37.2813C264.748 36.1991 265.51 35.3695 266.493 34.7923C267.485 34.2061 268.652 33.913 269.996 33.913C271.105 33.913 272.115 34.1475 273.026 34.6165C273.937 35.0854 274.659 35.8023 275.191 36.7673C275.732 37.7322 276.002 38.9632 276.002 40.4602C276.002 40.7037 275.998 40.9923 275.989 41.3259C275.98 41.6596 275.948 42.0023 275.894 42.354H265.776V39.7027H272.945C272.882 38.9902 272.706 38.4086 272.418 37.9577C272.129 37.5068 271.773 37.1776 271.349 36.9702C270.925 36.7538 270.474 36.6455 269.996 36.6455C268.725 36.6455 267.805 37.0423 267.237 37.8359C266.678 38.6295 266.398 39.7117 266.398 41.0825C266.398 42.4442 266.714 43.5444 267.345 44.3831C267.985 45.2128 268.878 45.6276 270.023 45.6276C270.636 45.6276 271.191 45.5194 271.687 45.3029C272.183 45.0865 272.648 44.7438 273.08 44.2749L274.947 46.2499C274.37 46.8811 273.667 47.3952 272.837 47.792C272.016 48.1888 271.069 48.3872 269.996 48.3872ZM284.692 48.0625L281.148 34.2377H283.962L285.721 41.353C285.784 41.5875 285.833 41.8129 285.869 42.0294C285.914 42.2368 285.955 42.4622 285.991 42.7057C286.036 42.4352 286.072 42.2007 286.099 42.0023C286.135 41.7949 286.18 41.5694 286.235 41.3259L287.885 34.2377H290.266L291.916 41.353C291.97 41.5785 292.02 41.7994 292.065 42.0158C292.11 42.2323 292.15 42.4713 292.187 42.7328C292.232 42.4713 292.272 42.2368 292.308 42.0294C292.344 41.8219 292.394 41.5965 292.457 41.353L294.162 34.2377H297.002L293.431 48.0625H291.05L289.454 41.1366C289.4 40.9021 289.337 40.6045 289.265 40.2438C289.193 39.874 289.129 39.5404 289.075 39.2428C289.021 39.5404 288.954 39.874 288.872 40.2438C288.791 40.6045 288.724 40.9021 288.669 41.1366L287.127 48.0625H284.692Z" fill="url(#paint2_linear_572_399)"/>
<path d="M152.005 48.0625H150.005V50.0625H152.005V48.0625ZM152.005 34.2377V32.2377H150.005V34.2377H152.005ZM155.116 34.2377H157.116V32.2377H155.116V34.2377ZM155.116 48.0625V50.0625H157.116V48.0625H155.116ZM148.19 48.0625H146.19V50.0625H148.19V48.0625ZM148.19 45.33V43.33H146.19V45.33H148.19ZM158.931 45.33H160.931V43.33H158.931V45.33ZM158.931 48.0625V50.0625H160.931V48.0625H158.931ZM148.19 36.9702H146.19V38.9702H148.19V36.9702ZM148.19 34.2377V32.2377H146.19V34.2377H148.19ZM154.034 34.2377H156.034V32.2377H154.034V34.2377ZM154.034 36.9702V38.9702H156.034V36.9702H154.034ZM152.235 31.7757L150.786 33.1542L150.803 33.1723L150.82 33.1899L152.235 31.7757ZM152.235 29.1515L150.82 27.7372L150.82 27.7372L152.235 29.1515ZM154.872 29.1515L153.44 30.5477L153.458 30.5658L153.476 30.5835L154.872 29.1515ZM154.872 31.7757L153.441 30.3791L153.44 30.3795L154.872 31.7757ZM152.005 48.0625H154.005V34.2377H152.005H150.005V48.0625H152.005ZM152.005 34.2377V36.2377H155.116V34.2377V32.2377H152.005V34.2377ZM155.116 34.2377H153.116V48.0625H155.116H157.116V34.2377H155.116ZM155.116 48.0625V46.0625H152.005V48.0625V50.0625H155.116V48.0625ZM148.19 48.0625H150.19V45.33H148.19H146.19V48.0625H148.19ZM148.19 45.33V47.33H158.931V45.33V43.33H148.19V45.33ZM158.931 45.33H156.931V48.0625H158.931H160.931V45.33H158.931ZM158.931 48.0625V46.0625H148.19V48.0625V50.0625H158.931V48.0625ZM148.19 36.9702H150.19V34.2377H148.19H146.19V36.9702H148.19ZM148.19 34.2377V36.2377H154.034V34.2377V32.2377H148.19V34.2377ZM154.034 34.2377H152.034V36.9702H154.034H156.034V34.2377H154.034ZM154.034 36.9702V34.9702H148.19V36.9702V38.9702H154.034V36.9702ZM153.547 32.3168V30.3168C153.536 30.3168 153.537 30.3159 153.548 30.318C153.56 30.3202 153.576 30.3246 153.596 30.3326C153.615 30.3405 153.631 30.3495 153.642 30.357C153.653 30.3644 153.655 30.3674 153.649 30.3615L152.235 31.7757L150.82 33.1899C151.559 33.929 152.507 34.3168 153.547 34.3168V32.3168ZM152.235 31.7757L153.684 30.3973C153.676 30.389 153.676 30.388 153.681 30.3949C153.685 30.4021 153.692 30.4133 153.697 30.4275C153.703 30.4417 153.706 30.4534 153.707 30.4602C153.708 30.4667 153.707 30.4642 153.707 30.4501H151.707H149.707C149.707 31.473 150.077 32.4096 150.786 33.1542L152.235 31.7757ZM151.707 30.4501H153.707C153.707 30.4359 153.708 30.4351 153.706 30.4449C153.705 30.4552 153.7 30.4721 153.692 30.4926C153.683 30.5133 153.673 30.5318 153.664 30.5464C153.654 30.5609 153.647 30.5671 153.649 30.5657L152.235 29.1515L150.82 27.7372C150.08 28.4778 149.707 29.4254 149.707 30.4501H151.707ZM152.235 29.1515L153.649 30.5657C153.655 30.5598 153.653 30.5628 153.642 30.5701C153.631 30.5777 153.615 30.5866 153.596 30.5946C153.576 30.6025 153.56 30.607 153.548 30.6092C153.537 30.6113 153.536 30.6104 153.547 30.6104V28.6104V26.6104C152.507 26.6104 151.559 26.9982 150.82 27.7372L152.235 29.1515ZM153.547 28.6104V30.6104C153.567 30.6104 153.572 30.612 153.565 30.6107C153.557 30.6094 153.542 30.6057 153.521 30.5973C153.501 30.5889 153.481 30.5783 153.465 30.5672C153.449 30.5562 153.441 30.5482 153.44 30.5477L154.872 29.1515L156.304 27.7553C155.553 26.9849 154.584 26.6104 153.547 26.6104V28.6104ZM154.872 29.1515L153.476 30.5835C153.479 30.586 153.473 30.5805 153.463 30.5659C153.452 30.5511 153.442 30.5317 153.432 30.5091C153.423 30.4866 153.418 30.4673 153.415 30.454C153.413 30.4411 153.414 30.4389 153.414 30.4501H155.414H157.414C157.414 29.4091 157.024 28.4561 156.269 27.7195L154.872 29.1515ZM155.414 30.4501H153.414C153.414 30.4612 153.413 30.4607 153.414 30.4513C153.416 30.4415 153.42 30.4273 153.427 30.4112C153.433 30.3952 153.44 30.3829 153.445 30.3755C153.45 30.3684 153.45 30.3698 153.441 30.3791L154.872 31.7757L156.304 33.1724C157.027 32.4311 157.414 31.4889 157.414 30.4501H155.414ZM154.872 31.7757L153.44 30.3795C153.441 30.379 153.449 30.371 153.465 30.36C153.481 30.3489 153.501 30.3383 153.521 30.3299C153.542 30.3215 153.557 30.3178 153.565 30.3164C153.572 30.3152 153.567 30.3168 153.547 30.3168V32.3168V34.3168C154.584 34.3168 155.553 33.9422 156.304 33.1719L154.872 31.7757ZM166.755 48.0625H164.755V50.0625H166.755V48.0625ZM166.755 34.2377V32.2377H164.755V34.2377H166.755ZM169.866 34.2377H171.866V32.2377H169.866V34.2377ZM169.866 37.5113L168.036 38.3186L171.866 37.5113H169.866ZM169.46 36.5914H167.46V37.013L167.631 37.3987L169.46 36.5914ZM170.042 35.374L171.488 36.7557L171.496 36.7478L171.503 36.7397L170.042 35.374ZM171.598 34.3324L170.816 32.4915L170.807 32.4954L171.598 34.3324ZM176.332 34.4541L177.176 32.6407L177.176 32.6407L176.332 34.4541ZM178.199 36.2532L176.453 37.2293L176.458 37.2374L178.199 36.2532ZM178.902 48.0625V50.0625H180.902V48.0625H178.902ZM175.791 48.0625H173.791V50.0625H175.791V48.0625ZM174.939 37.6195L173.598 39.1037L173.611 39.115L173.624 39.1261L174.939 37.6195ZM171.395 37.1731L172.187 39.0095L172.195 39.0059L172.204 39.0022L171.395 37.1731ZM169.866 48.0625V50.0625H171.866V48.0625H169.866ZM166.755 48.0625H168.755V34.2377H166.755H164.755V48.0625H166.755ZM166.755 34.2377V36.2377H169.866V34.2377V32.2377H166.755V34.2377ZM169.866 34.2377H167.866V37.5113H169.866H171.866V34.2377H169.866ZM169.866 37.5113L171.696 36.704L171.29 35.7841L169.46 36.5914L167.631 37.3987L168.036 38.3186L169.866 37.5113ZM169.46 36.5914H171.46C171.46 36.6508 171.453 36.7053 171.442 36.7518C171.431 36.7976 171.418 36.829 171.411 36.8449C171.397 36.8736 171.406 36.8418 171.488 36.7557L170.042 35.374L168.596 33.9923C167.991 34.6258 167.46 35.5009 167.46 36.5914H169.46ZM170.042 35.374L171.503 36.7397C171.662 36.5695 171.933 36.3657 172.389 36.1693L171.598 34.3324L170.807 32.4954C169.964 32.8582 169.197 33.3488 168.581 34.0082L170.042 35.374ZM171.598 34.3324L172.38 36.1733C172.762 36.0108 173.222 35.913 173.789 35.913V33.913V31.913C172.751 31.913 171.75 32.0948 170.816 32.4915L171.598 34.3324ZM173.789 33.913V35.913C174.44 35.913 174.997 36.0388 175.489 36.2676L176.332 34.4541L177.176 32.6407C176.116 32.148 174.978 31.913 173.789 31.913V33.913ZM176.332 34.4541L175.489 36.2676C175.837 36.4294 176.163 36.7103 176.453 37.2293L178.199 36.2532L179.945 35.2772C179.297 34.1188 178.379 33.2003 177.176 32.6407L176.332 34.4541ZM178.199 36.2532L176.458 37.2374C176.694 37.6556 176.902 38.3952 176.902 39.6215H178.902H180.902C180.902 38.0161 180.642 36.5102 179.94 35.2691L178.199 36.2532ZM178.902 39.6215H176.902V48.0625H178.902H180.902V39.6215H178.902ZM178.902 48.0625V46.0625H175.791V48.0625V50.0625H178.902V48.0625ZM175.791 48.0625H177.791V40.2708H175.791H173.791V48.0625H175.791ZM175.791 40.2708H177.791C177.791 38.8024 177.48 37.1825 176.254 36.1129L174.939 37.6195L173.624 39.1261C173.577 39.0854 173.618 39.091 173.674 39.2663C173.734 39.4525 173.791 39.7716 173.791 40.2708H175.791ZM174.939 37.6195L176.28 36.1353C175.337 35.2835 174.181 34.862 172.923 34.862V36.862V38.862C173.235 38.862 173.423 38.9455 173.598 39.1037L174.939 37.6195ZM172.923 36.862V34.862C172.115 34.862 171.328 35.0159 170.586 35.344L171.395 37.1731L172.204 39.0022C172.4 38.9155 172.631 38.862 172.923 38.862V36.862ZM171.395 37.1731L170.603 35.3367C169.699 35.7267 169.018 36.3914 168.551 37.2054L170.286 38.2012L172.02 39.1969C172.112 39.037 172.171 39.0163 172.187 39.0095L171.395 37.1731ZM170.286 38.2012L168.551 37.2054C168.029 38.1143 167.866 39.1794 167.866 40.2167H169.866H171.866C171.866 39.5406 171.983 39.262 172.02 39.1969L170.286 38.2012ZM169.866 40.2167H167.866V48.0625H169.866H171.866V40.2167H169.866ZM169.866 48.0625V46.0625H166.755V48.0625V50.0625H169.866V48.0625ZM190.352 47.4132L188.909 48.7975L188.918 48.8074L190.352 47.4132ZM189.405 36.9702H191.405V34.9702H189.405V36.9702ZM186.51 36.9702H184.51V38.9702H186.51V36.9702ZM186.51 34.2377V32.2377H184.51V34.2377H186.51ZM189.405 34.2377V36.2377H191.405V34.2377H189.405ZM189.405 30.0172L188.542 28.2129L187.405 28.7568V30.0172H189.405ZM192.517 28.5292H194.517V25.3557L191.654 26.7249L192.517 28.5292ZM192.517 34.2377H190.517V36.2377H192.517V34.2377ZM197.224 34.2377H199.224V32.2377H197.224V34.2377ZM197.224 36.9702V38.9702H199.224V36.9702H197.224ZM192.517 36.9702V34.9702H190.517V36.9702H192.517ZM192.706 44.9107L190.93 45.8313L190.951 45.8712L190.974 45.9101L192.706 44.9107ZM193.328 45.4517L192.505 47.2745L192.54 47.2903L192.575 47.3047L193.328 45.4517ZM195.723 45.4517L196.314 47.3623L196.328 47.358L196.342 47.3535L195.723 45.4517ZM196.845 44.9783L198.827 45.2477L199.349 41.4048L195.916 43.2075L196.845 44.9783ZM196.467 47.7649L197.377 49.5454L198.308 49.0695L198.448 48.0343L196.467 47.7649ZM193.463 48.3872V46.3872C192.25 46.3872 191.869 46.1041 191.786 46.019L190.352 47.4132L188.918 48.8074C190.098 50.0209 191.791 50.3872 193.463 50.3872V48.3872ZM190.352 47.4132L191.796 46.029C191.623 45.8486 191.405 45.4777 191.405 44.6266H189.405H187.405C187.405 46.1743 187.819 47.6611 188.909 48.7974L190.352 47.4132ZM189.405 44.6266H191.405V36.9702H189.405H187.405V44.6266H189.405ZM189.405 36.9702V34.9702H186.51V36.9702V38.9702H189.405V36.9702ZM186.51 36.9702H188.51V34.2377H186.51H184.51V36.9702H186.51ZM186.51 34.2377V36.2377H189.405V34.2377V32.2377H186.51V34.2377ZM189.405 34.2377H191.405V30.0172H189.405H187.405V34.2377H189.405ZM189.405 30.0172L190.268 31.8215L193.379 30.3335L192.517 28.5292L191.654 26.7249L188.542 28.2129L189.405 30.0172ZM192.517 28.5292H190.517V34.2377H192.517H194.517V28.5292H192.517ZM192.517 34.2377V36.2377H197.224V34.2377V32.2377H192.517V34.2377ZM197.224 34.2377H195.224V36.9702H197.224H199.224V34.2377H197.224ZM197.224 36.9702V34.9702H192.517V36.9702V38.9702H197.224V36.9702ZM192.517 36.9702H190.517V44.0314H192.517H194.517V36.9702H192.517ZM192.517 44.0314H190.517C190.517 44.6162 190.624 45.2411 190.93 45.8313L192.706 44.9107L194.481 43.99C194.507 44.04 194.517 44.0759 194.519 44.0871C194.521 44.097 194.517 44.0809 194.517 44.0314H192.517ZM192.706 44.9107L190.974 45.9101C191.345 46.5547 191.897 46.9997 192.505 47.2745L193.328 45.4517L194.151 43.629C194.169 43.6368 194.216 43.6611 194.275 43.7126C194.336 43.7656 194.393 43.8334 194.438 43.9112L192.706 44.9107ZM193.328 45.4517L192.575 47.3047C193.192 47.5553 193.855 47.6276 194.464 47.6276V45.6276V43.6276C194.311 43.6276 194.203 43.6178 194.135 43.6072C194.065 43.5964 194.053 43.5875 194.081 43.5988L193.328 45.4517ZM194.464 45.6276V47.6276C195.094 47.6276 195.716 47.5474 196.314 47.3623L195.723 45.4517L195.131 43.5412C194.972 43.5905 194.755 43.6276 194.464 43.6276V45.6276ZM195.723 45.4517L196.342 47.3535C196.836 47.1924 197.314 46.9908 197.775 46.7491L196.845 44.9783L195.916 43.2075C195.655 43.3445 195.384 43.4586 195.103 43.55L195.723 45.4517ZM196.845 44.9783L194.863 44.7089L194.485 47.4955L196.467 47.7649L198.448 48.0343L198.827 45.2477L196.845 44.9783ZM196.467 47.7649L195.556 45.9844C195.339 46.0953 195.065 46.1958 194.721 46.2725L195.154 48.2248L195.588 50.1772C196.217 50.0374 196.819 49.8313 197.377 49.5454L196.467 47.7649ZM195.154 48.2248L194.721 46.2725C194.409 46.3416 193.997 46.3872 193.463 46.3872V48.3872V50.3872C194.211 50.3872 194.925 50.3245 195.588 50.1772L195.154 48.2248ZM208.038 47.5079L207.021 49.2297L207.021 49.2297L208.038 47.5079ZM205.738 45.0189L203.944 45.9013L203.948 45.9103L203.953 45.9193L205.738 45.0189ZM205.738 37.3354L203.947 36.4469L203.944 36.453L205.738 37.3354ZM208.038 34.8058L207.009 33.0908L208.038 34.8058ZM215.113 34.8058L214.084 36.5209L214.095 36.5277L215.113 34.8058ZM217.399 37.3219L215.601 38.1985L215.604 38.2043L217.399 37.3219ZM215.113 47.5079L216.13 49.2297L216.13 49.2297L215.113 47.5079ZM214.166 44.2478L215.752 45.4655L215.752 45.4655L214.166 44.2478ZM214.179 38.0524L212.571 39.2406L212.577 39.2494L214.179 38.0524ZM208.985 44.2478L207.407 45.477L207.407 45.477L208.985 44.2478ZM211.569 48.3872V46.3872C210.499 46.3872 209.687 46.1594 209.055 45.786L208.038 47.5079L207.021 49.2297C208.373 50.0287 209.914 50.3872 211.569 50.3872V48.3872ZM208.038 47.5079L209.055 45.786C208.407 45.4032 207.901 44.8654 207.524 44.1185L205.738 45.0189L203.953 45.9193C204.658 47.3187 205.684 48.4403 207.021 49.2297L208.038 47.5079ZM205.738 45.0189L207.533 44.1364C207.164 43.3855 206.94 42.4158 206.94 41.1636H204.94H202.94C202.94 42.8875 203.249 44.4879 203.944 45.9013L205.738 45.0189ZM204.94 41.1636H206.94C206.94 39.9337 207.162 38.9719 207.533 38.2179L205.738 37.3354L203.944 36.453C203.25 37.8633 202.94 39.4536 202.94 41.1636H204.94ZM205.738 37.3354L207.53 38.2239C207.911 37.4565 208.421 36.9085 209.067 36.5208L208.038 34.8058L207.009 33.0908C205.671 33.8935 204.648 35.032 203.947 36.4469L205.738 37.3354ZM208.038 34.8058L209.067 36.5208C209.697 36.1429 210.504 35.913 211.569 35.913V33.913V31.913C209.909 31.913 208.363 32.2784 207.009 33.0908L208.038 34.8058ZM211.569 33.913V35.913C212.644 35.913 213.456 36.1441 214.084 36.5208L215.113 34.8058L216.142 33.0908C214.786 32.2772 213.234 31.913 211.569 31.913V33.913ZM215.113 34.8058L214.095 36.5277C214.731 36.9036 215.231 37.4395 215.601 38.1984L217.399 37.3219L219.196 36.4453C218.502 35.0219 217.478 33.8804 216.13 33.084L215.113 34.8058ZM217.399 37.3219L215.604 38.2043C215.974 38.9568 216.197 39.9226 216.197 41.1636H218.197H220.197C220.197 39.4467 219.888 37.8513 219.194 36.4395L217.399 37.3219ZM218.197 41.1636H216.197C216.197 42.4047 215.974 43.3704 215.604 44.1229L217.399 45.0053L219.194 45.8878C219.888 44.4759 220.197 42.8805 220.197 41.1636H218.197ZM217.399 45.0053L215.604 44.1229C215.235 44.8727 214.736 45.4075 214.095 45.786L215.113 47.5079L216.13 49.2297C217.474 48.4359 218.498 47.3023 219.194 45.8878L217.399 45.0053ZM215.113 47.5079L214.095 45.786C213.465 46.1583 212.65 46.3872 211.569 46.3872V48.3872V50.3872C213.229 50.3872 214.776 50.0299 216.13 49.2297L215.113 47.5079ZM211.569 45.4112V47.4112C213.213 47.4112 214.714 46.8182 215.752 45.4655L214.166 44.2478L212.579 43.0302C212.427 43.2286 212.197 43.4112 211.569 43.4112V45.4112ZM214.166 44.2478L215.752 45.4655C216.688 44.2458 217.059 42.7478 217.059 41.1636H215.059H213.059C213.059 42.1406 212.834 42.6988 212.579 43.0302L214.166 44.2478ZM215.059 41.1636H217.059C217.059 39.5788 216.697 38.0807 215.782 36.8553L214.179 38.0524L212.577 39.2494C212.834 39.5931 213.059 40.1692 213.059 41.1636H215.059ZM214.179 38.0524L215.788 36.8641C214.757 35.4688 213.235 34.862 211.569 34.862V36.862V38.862C212.211 38.862 212.429 39.0487 212.571 39.2406L214.179 38.0524ZM211.569 36.862V34.862C209.921 34.862 208.436 35.4741 207.4 36.8185L208.985 38.0388L210.569 39.2591C210.743 39.0344 210.979 38.862 211.569 38.862V36.862ZM208.985 38.0388L207.4 36.8185C206.453 38.0482 206.079 39.5613 206.079 41.1636H208.079H210.079C210.079 40.1687 210.308 39.5986 210.569 39.2591L208.985 38.0388ZM208.079 41.1636H206.079C206.079 42.754 206.456 44.2564 207.407 45.477L208.985 44.2478L210.563 43.0187C210.305 42.6881 210.079 42.1344 210.079 41.1636H208.079ZM208.985 44.2478L207.407 45.477C208.446 46.8101 209.93 47.4112 211.569 47.4112V45.4112V43.4112C210.971 43.4112 210.732 43.2367 210.563 43.0187L208.985 44.2478ZM229.43 48.0625L227.567 48.7883L228.063 50.0625H229.43V48.0625ZM224.046 34.2377V32.2377H221.121L222.183 34.9635L224.046 34.2377ZM227.374 34.2377L229.253 33.5533L228.774 32.2377H227.374V34.2377ZM230.566 43.0033L228.687 43.6877L228.69 43.6967L228.694 43.7056L230.566 43.0033ZM230.783 43.6662L232.709 43.1269L232.709 43.1269L230.783 43.6662ZM230.972 44.4913L229.009 44.8731L232.945 44.8201L230.972 44.4913ZM231.148 43.6662L229.243 43.0566L229.232 43.0916L229.222 43.1269L231.148 43.6662ZM231.378 43.0033L233.251 43.7056L233.255 43.6941L233.259 43.6826L231.378 43.0033ZM234.543 34.2377V32.2377H233.139L232.662 33.5584L234.543 34.2377ZM237.844 34.2377L239.708 34.9635L240.769 32.2377H237.844V34.2377ZM232.46 48.0625V50.0625H233.828L234.324 48.7883L232.46 48.0625ZM229.43 48.0625L231.294 47.3367L225.91 33.5119L224.046 34.2377L222.183 34.9635L227.567 48.7883L229.43 48.0625ZM224.046 34.2377V36.2377H227.374V34.2377V32.2377H224.046V34.2377ZM227.374 34.2377L225.495 34.9221L228.687 43.6877L230.566 43.0033L232.446 42.3189L229.253 33.5533L227.374 34.2377ZM230.566 43.0033L228.694 43.7056C228.755 43.8678 228.809 44.0343 228.857 44.2054L230.783 43.6662L232.709 43.1269C232.631 42.8471 232.541 42.5717 232.439 42.3011L230.566 43.0033ZM230.783 43.6662L228.857 44.2054C228.901 44.3626 228.952 44.5817 229.009 44.8731L230.972 44.4913L232.936 44.1096C232.866 43.7516 232.791 43.4206 232.709 43.1269L230.783 43.6662ZM230.972 44.4913L232.945 44.8201C232.992 44.5404 233.036 44.3402 233.074 44.2054L231.148 43.6662L229.222 43.1269C229.134 43.443 229.061 43.7929 229 44.1625L230.972 44.4913ZM231.148 43.6662L233.053 44.2757C233.115 44.0807 233.181 43.8906 233.251 43.7056L231.378 43.0033L229.505 42.3011C229.413 42.5489 229.325 42.8007 229.243 43.0566L231.148 43.6662ZM231.378 43.0033L233.259 43.6826L236.425 34.917L234.543 34.2377L232.662 33.5584L229.497 42.324L231.378 43.0033ZM234.543 34.2377V36.2377H237.844V34.2377V32.2377H234.543V34.2377ZM237.844 34.2377L235.98 33.5119L230.597 47.3367L232.46 48.0625L234.324 48.7883L239.708 34.9635L237.844 34.2377ZM232.46 48.0625V46.0625H229.43V48.0625V50.0625H232.46V48.0625ZM248.888 48.0625H246.888V50.0625H248.888V48.0625ZM248.888 34.2377V32.2377H246.888V34.2377H248.888ZM251.999 34.2377H253.999V32.2377H251.999V34.2377ZM251.999 48.0625V50.0625H253.999V48.0625H251.999ZM245.073 48.0625H243.073V50.0625H245.073V48.0625ZM245.073 45.33V43.33H243.073V45.33H245.073ZM255.814 45.33H257.814V43.33H255.814V45.33ZM255.814 48.0625V50.0625H257.814V48.0625H255.814ZM245.073 36.9702H243.073V38.9702H245.073V36.9702ZM245.073 34.2377V32.2377H243.073V34.2377H245.073ZM250.917 34.2377H252.917V32.2377H250.917V34.2377ZM250.917 36.9702V38.9702H252.917V36.9702H250.917ZM249.118 31.7757L247.669 33.1542L247.686 33.1723L247.704 33.1899L249.118 31.7757ZM249.118 29.1515L247.704 27.7372L247.704 27.7372L249.118 29.1515ZM251.756 29.1515L250.324 30.5477L250.341 30.5658L250.36 30.5835L251.756 29.1515ZM251.756 31.7757L250.324 30.3791L250.324 30.3795L251.756 31.7757ZM248.888 48.0625H250.888V34.2377H248.888H246.888V48.0625H248.888ZM248.888 34.2377V36.2377H251.999V34.2377V32.2377H248.888V34.2377ZM251.999 34.2377H249.999V48.0625H251.999H253.999V34.2377H251.999ZM251.999 48.0625V46.0625H248.888V48.0625V50.0625H251.999V48.0625ZM245.073 48.0625H247.073V45.33H245.073H243.073V48.0625H245.073ZM245.073 45.33V47.33H255.814V45.33V43.33H245.073V45.33ZM255.814 45.33H253.814V48.0625H255.814H257.814V45.33H255.814ZM255.814 48.0625V46.0625H245.073V48.0625V50.0625H255.814V48.0625ZM245.073 36.9702H247.073V34.2377H245.073H243.073V36.9702H245.073ZM245.073 34.2377V36.2377H250.917V34.2377V32.2377H245.073V34.2377ZM250.917 34.2377H248.917V36.9702H250.917H252.917V34.2377H250.917ZM250.917 36.9702V34.9702H245.073V36.9702V38.9702H250.917V36.9702ZM250.43 32.3168V30.3168C250.419 30.3168 250.42 30.3159 250.432 30.318C250.443 30.3202 250.46 30.3246 250.479 30.3326C250.498 30.3405 250.514 30.3495 250.525 30.357C250.536 30.3644 250.538 30.3674 250.532 30.3615L249.118 31.7757L247.704 33.1899C248.443 33.929 249.39 34.3168 250.43 34.3168V32.3168ZM249.118 31.7757L250.567 30.3973C250.559 30.389 250.56 30.388 250.564 30.3949C250.569 30.4021 250.575 30.4133 250.581 30.4275C250.586 30.4417 250.589 30.4534 250.59 30.4602C250.592 30.4667 250.59 30.4642 250.59 30.4501H248.59H246.59C246.59 31.473 246.961 32.4096 247.669 33.1542L249.118 31.7757ZM248.59 30.4501H250.59C250.59 30.4359 250.592 30.4351 250.59 30.4449C250.588 30.4552 250.584 30.4721 250.575 30.4926C250.567 30.5133 250.557 30.5318 250.547 30.5464C250.537 30.5609 250.531 30.5671 250.532 30.5657L249.118 29.1515L247.704 27.7372C246.963 28.4778 246.59 29.4254 246.59 30.4501H248.59ZM249.118 29.1515L250.532 30.5657C250.538 30.5598 250.536 30.5628 250.525 30.5701C250.514 30.5777 250.498 30.5866 250.479 30.5946C250.46 30.6025 250.443 30.607 250.432 30.6092C250.42 30.6113 250.419 30.6104 250.43 30.6104V28.6104V26.6104C249.39 26.6104 248.443 26.9982 247.704 27.7372L249.118 29.1515ZM250.43 28.6104V30.6104C250.45 30.6104 250.455 30.612 250.448 30.6107C250.441 30.6094 250.425 30.6057 250.405 30.5973C250.384 30.5889 250.365 30.5783 250.348 30.5672C250.332 30.5562 250.324 30.5482 250.324 30.5477L251.756 29.1515L253.188 27.7553C252.437 26.9849 251.468 26.6104 250.43 26.6104V28.6104ZM251.756 29.1515L250.36 30.5835C250.362 30.586 250.356 30.5805 250.346 30.5659C250.336 30.5511 250.325 30.5317 250.315 30.5091C250.306 30.4866 250.301 30.4673 250.298 30.454C250.296 30.4411 250.297 30.4389 250.297 30.4501H252.297H254.297C254.297 29.4091 253.908 28.4561 253.152 27.7195L251.756 29.1515ZM252.297 30.4501H250.297C250.297 30.4612 250.296 30.4607 250.298 30.4513C250.3 30.4415 250.303 30.4273 250.31 30.4112C250.316 30.3952 250.324 30.3829 250.328 30.3755C250.333 30.3684 250.333 30.3698 250.324 30.3791L251.756 31.7757L253.187 33.1724C253.911 32.4311 254.297 31.4889 254.297 30.4501H252.297ZM251.756 31.7757L250.324 30.3795C250.324 30.379 250.332 30.371 250.348 30.36C250.365 30.3489 250.384 30.3383 250.405 30.3299C250.425 30.3215 250.441 30.3178 250.448 30.3164C250.455 30.3152 250.45 30.3168 250.43 30.3168V32.3168V34.3168C251.468 34.3168 252.437 33.9422 253.188 33.1719L251.756 31.7757ZM266.452 47.4944L265.405 49.1982L265.414 49.2038L265.423 49.2093L266.452 47.4944ZM264.179 44.9648L262.376 45.8293L262.38 45.8383L262.385 45.8472L264.179 44.9648ZM264.207 37.2813L265.992 38.1817L265.995 38.1757L264.207 37.2813ZM266.493 34.7923L267.505 36.517L267.51 36.5142L266.493 34.7923ZM275.191 36.7673L273.439 37.733L273.443 37.7393L273.446 37.7455L275.191 36.7673ZM275.989 41.3259L277.988 41.38L277.988 41.38L275.989 41.3259ZM275.894 42.354V44.354H277.61L277.871 42.6581L275.894 42.354ZM265.776 42.354H263.776V44.354H265.776V42.354ZM265.776 39.7027V37.7027H263.776V39.7027H265.776ZM272.945 39.7027V41.7027H275.13L274.937 39.5262L272.945 39.7027ZM271.349 36.9702L270.439 38.7514L270.455 38.7591L270.47 38.7666L271.349 36.9702ZM267.237 37.8359L265.61 36.6717L265.606 36.6778L265.602 36.684L267.237 37.8359ZM267.345 44.3831L265.747 45.5858L265.754 45.5955L265.762 45.605L267.345 44.3831ZM273.08 44.2749L274.534 42.901L273.063 41.345L271.611 42.9183L273.08 44.2749ZM274.947 46.2499L276.423 47.5994L277.678 46.2272L276.401 44.876L274.947 46.2499ZM272.837 47.792L271.974 45.9877L271.966 45.9914L272.837 47.792ZM269.996 48.3872V46.3872C268.92 46.3872 268.109 46.1561 267.481 45.7794L266.452 47.4944L265.423 49.2093C266.779 50.023 268.331 50.3872 269.996 50.3872V48.3872ZM266.452 47.4944L267.499 45.7905C266.853 45.3932 266.348 44.8417 265.974 44.0823L264.179 44.9648L262.385 45.8472C263.075 47.2522 264.085 48.3871 265.405 49.1982L266.452 47.4944ZM264.179 44.9648L265.983 44.1003C265.613 43.3291 265.395 42.3594 265.395 41.1366H263.395H261.395C261.395 42.8356 261.7 44.4181 262.376 45.8293L264.179 44.9648ZM263.395 41.1366H265.395C265.395 39.8771 265.622 38.9155 265.992 38.1817L264.207 37.2813L262.421 36.3809C261.708 37.7935 261.395 39.402 261.395 41.1366H263.395ZM264.207 37.2813L265.995 38.1757C266.375 37.4173 266.877 36.886 267.505 36.517L266.493 34.7923L265.48 33.0676C264.143 33.8529 263.121 34.981 262.418 36.3869L264.207 37.2813ZM266.493 34.7923L267.51 36.5142C268.146 36.1384 268.95 35.913 269.996 35.913V33.913V31.913C268.355 31.913 266.823 32.2738 265.475 33.0705L266.493 34.7923ZM269.996 33.913V35.913C270.814 35.913 271.506 36.0833 272.111 36.3946L273.026 34.6165L273.942 32.8383C272.725 32.2117 271.397 31.913 269.996 31.913V33.913ZM273.026 34.6165L272.111 36.3946C272.642 36.6679 273.084 37.0883 273.439 37.733L275.191 36.7673L276.942 35.8016C276.233 34.5164 275.233 33.5029 273.942 32.8383L273.026 34.6165ZM275.191 36.7673L273.446 37.7455C273.771 38.3245 274.002 39.1897 274.002 40.4602H276.002H278.002C278.002 38.7367 277.693 37.1399 276.935 35.7891L275.191 36.7673ZM276.002 40.4602H274.002C274.002 40.6805 273.998 40.9502 273.989 41.2719L275.989 41.3259L277.988 41.38C277.997 41.0344 278.002 40.7269 278.002 40.4602H276.002ZM275.989 41.3259L273.989 41.2719C273.983 41.5165 273.96 41.7756 273.917 42.0499L275.894 42.354L277.871 42.6581C277.937 42.229 277.977 41.8027 277.988 41.38L275.989 41.3259ZM275.894 42.354V40.354H265.776V42.354V44.354H275.894V42.354ZM265.776 42.354H267.776V39.7027H265.776H263.776V42.354H265.776ZM265.776 39.7027V41.7027H272.945V39.7027V37.7027H265.776V39.7027ZM272.945 39.7027L274.937 39.5262C274.855 38.5961 274.613 37.6775 274.102 36.8796L272.418 37.9577L270.733 39.0358C270.8 39.1397 270.909 39.3844 270.953 39.8792L272.945 39.7027ZM272.418 37.9577L274.102 36.8796C273.643 36.1624 273.024 35.5631 272.228 35.1738L271.349 36.9702L270.47 38.7666C270.522 38.7921 270.615 38.8511 270.733 39.0358L272.418 37.9577ZM271.349 36.9702L272.258 35.189C271.552 34.8281 270.789 34.6455 269.996 34.6455V36.6455V38.6455C270.159 38.6455 270.298 38.6794 270.439 38.7514L271.349 36.9702ZM269.996 36.6455V34.6455C268.295 34.6455 266.664 35.1999 265.61 36.6717L267.237 37.8359L268.863 39.0002C268.946 38.8847 269.154 38.6455 269.996 38.6455V36.6455ZM267.237 37.8359L265.602 36.684C264.725 37.9278 264.398 39.4634 264.398 41.0825H266.398H268.398C268.398 39.96 268.63 39.3312 268.872 38.9878L267.237 37.8359ZM266.398 41.0825H264.398C264.398 42.7487 264.786 44.3097 265.747 45.5858L267.345 44.3831L268.943 43.1804C268.641 42.7792 268.398 42.1396 268.398 41.0825H266.398ZM267.345 44.3831L265.762 45.605C266.819 46.9755 268.324 47.6276 270.023 47.6276V45.6276V43.6276C269.432 43.6276 269.151 43.45 268.928 43.1612L267.345 44.3831ZM270.023 45.6276V47.6276C270.875 47.6276 271.707 47.4763 272.487 47.136L271.687 45.3029L270.887 43.4699C270.675 43.5625 270.398 43.6276 270.023 43.6276V45.6276ZM271.687 45.3029L272.487 47.136C273.278 46.7908 273.963 46.2679 274.55 45.6314L273.08 44.2749L271.611 42.9183C271.333 43.2198 271.088 43.3822 270.887 43.4699L271.687 45.3029ZM273.08 44.2749L271.627 45.6487L273.494 47.6237L274.947 46.2499L276.401 44.876L274.534 42.901L273.08 44.2749ZM274.947 46.2499L273.471 44.9003C273.08 45.3282 272.59 45.6933 271.974 45.9877L272.837 47.792L273.7 49.5962C274.744 49.097 275.66 48.4341 276.423 47.5994L274.947 46.2499ZM272.837 47.792L271.966 45.9914C271.461 46.2356 270.821 46.3872 269.996 46.3872V48.3872V50.3872C271.318 50.3872 272.571 50.1419 273.708 49.5925L272.837 47.792ZM284.692 48.0625L282.755 48.5592L283.14 50.0625H284.692V48.0625ZM281.148 34.2377V32.2377H278.571L279.211 34.7343L281.148 34.2377ZM283.962 34.2377L285.904 33.7578L285.528 32.2377H283.962V34.2377ZM285.721 41.353L283.779 41.8329L283.784 41.853L283.789 41.8729L285.721 41.353ZM285.869 42.0294L283.897 42.3582L283.905 42.4064L283.915 42.4542L285.869 42.0294ZM285.991 42.7057L284.013 42.9988L287.964 43.0345L285.991 42.7057ZM286.099 42.0023L284.129 41.6596L284.123 41.6958L284.118 41.7321L286.099 42.0023ZM286.235 41.3259L284.287 40.8724L284.284 40.8822L284.282 40.8921L286.235 41.3259ZM287.885 34.2377V32.2377H286.297L285.937 33.7842L287.885 34.2377ZM290.266 34.2377L292.214 33.7858L291.855 32.2377H290.266V34.2377ZM291.916 41.353L289.968 41.8049L289.969 41.8123L289.971 41.8197L291.916 41.353ZM292.065 42.0158L290.107 42.4237L290.107 42.4237L292.065 42.0158ZM292.187 42.7328L290.205 43.006L294.157 43.0726L292.187 42.7328ZM292.457 41.353L294.393 41.8549L294.398 41.837L294.402 41.8189L292.457 41.353ZM294.162 34.2377V32.2377H292.584L292.217 33.7718L294.162 34.2377ZM297.002 34.2377L298.939 34.7379L299.585 32.2377H297.002V34.2377ZM293.431 48.0625V50.0625H294.98L295.367 48.5627L293.431 48.0625ZM291.05 48.0625L289.101 48.5117L289.459 50.0625H291.05V48.0625ZM289.454 41.1366L291.403 40.6874L291.403 40.6868L289.454 41.1366ZM289.265 40.2438L287.302 40.6268L287.303 40.636L289.265 40.2438ZM289.075 39.2428L291.043 38.885L287.108 38.885L289.075 39.2428ZM288.872 40.2438L290.824 40.6828L290.826 40.6726L288.872 40.2438ZM288.669 41.1366L286.721 40.6868L286.719 40.6944L286.717 40.7019L288.669 41.1366ZM287.127 48.0625V50.0625H288.731L289.08 48.4972L287.127 48.0625ZM284.692 48.0625L286.63 47.5658L283.086 33.741L281.148 34.2377L279.211 34.7343L282.755 48.5592L284.692 48.0625ZM281.148 34.2377V36.2377H283.962V34.2377V32.2377H281.148V34.2377ZM283.962 34.2377L282.02 34.7175L283.779 41.8329L285.721 41.353L287.662 40.8731L285.904 33.7578L283.962 34.2377ZM285.721 41.353L283.789 41.8729C283.837 42.051 283.872 42.2124 283.897 42.3582L285.869 42.0294L287.842 41.7006C287.794 41.4134 287.73 41.124 287.652 40.8331L285.721 41.353ZM285.869 42.0294L283.915 42.4542C283.949 42.6118 283.982 42.7927 284.013 42.9988L285.991 42.7057L287.969 42.4126C287.928 42.1317 287.88 41.8618 287.824 41.6045L285.869 42.0294ZM285.991 42.7057L287.964 43.0345C288.011 42.7511 288.05 42.4961 288.081 42.2725L286.099 42.0023L284.118 41.7321C284.094 41.9053 284.061 42.1193 284.018 42.3769L285.991 42.7057ZM286.099 42.0023L288.07 42.345C288.1 42.173 288.138 41.9784 288.187 41.7598L286.235 41.3259L284.282 40.8921C284.223 41.1605 284.171 41.4167 284.129 41.6596L286.099 42.0023ZM286.235 41.3259L288.182 41.7795L289.833 34.6912L287.885 34.2377L285.937 33.7842L284.287 40.8724L286.235 41.3259ZM287.885 34.2377V36.2377H290.266V34.2377V32.2377H287.885V34.2377ZM290.266 34.2377L288.317 34.6896L289.968 41.8049L291.916 41.353L293.864 40.9011L292.214 33.7858L290.266 34.2377ZM291.916 41.353L289.971 41.8197C290.021 42.0266 290.066 42.2279 290.107 42.4237L292.065 42.0158L294.023 41.6079C293.973 41.3709 293.919 41.1303 293.861 40.8863L291.916 41.353ZM292.065 42.0158L290.107 42.4237C290.141 42.588 290.174 42.7813 290.205 43.006L292.187 42.7328L294.168 42.4595C294.127 42.1612 294.079 41.8765 294.023 41.6079L292.065 42.0158ZM292.187 42.7328L294.157 43.0726C294.202 42.8118 294.243 42.5783 294.279 42.372L292.308 42.0294L290.338 41.6867C290.302 41.8953 290.261 42.1307 290.216 42.393L292.187 42.7328ZM292.308 42.0294L294.279 42.372C294.304 42.2272 294.341 42.0556 294.393 41.8549L292.457 41.353L290.521 40.8511C290.447 41.1374 290.385 41.4166 290.338 41.6867L292.308 42.0294ZM292.457 41.353L294.402 41.8189L296.106 34.7036L294.162 34.2377L292.217 33.7718L290.512 40.8871L292.457 41.353ZM294.162 34.2377V36.2377H297.002V34.2377V32.2377H294.162V34.2377ZM297.002 34.2377L295.066 33.7375L291.495 47.5623L293.431 48.0625L295.367 48.5627L298.939 34.7379L297.002 34.2377ZM293.431 48.0625V46.0625H291.05V48.0625V50.0625H293.431V48.0625ZM291.05 48.0625L292.999 47.6133L291.403 40.6874L289.454 41.1366L287.505 41.5857L289.101 48.5117L291.05 48.0625ZM289.454 41.1366L291.403 40.6868C291.355 40.4786 291.296 40.2019 291.226 39.8515L289.265 40.2438L287.303 40.636C287.378 41.0071 287.445 41.3256 287.505 41.5863L289.454 41.1366ZM289.265 40.2438L291.228 39.8607C291.157 39.4975 291.095 39.1724 291.043 38.885L289.075 39.2428L287.108 39.6005C287.163 39.9083 287.228 40.2506 287.302 40.6268L289.265 40.2438ZM289.075 39.2428L287.108 38.885C287.059 39.1538 286.996 39.4632 286.919 39.815L288.872 40.2438L290.826 40.6726C290.911 40.2848 290.984 39.9269 291.043 39.6005L289.075 39.2428ZM288.872 40.2438L286.921 39.8047C286.84 40.1636 286.774 40.4573 286.721 40.6868L288.669 41.1366L290.618 41.5863C290.673 41.3469 290.742 41.0454 290.824 40.6828L288.872 40.2438ZM288.669 41.1366L286.717 40.7019L285.175 47.6278L287.127 48.0625L289.08 48.4972L290.622 41.5712L288.669 41.1366ZM287.127 48.0625V46.0625H284.692V48.0625V50.0625H287.127V48.0625Z" fill="url(#paint3_linear_572_399)" mask="url(#path-15-outside-2_572_399)"/>
</g>
<defs>
<filter id="filter0_f_572_399" x="31" y="43.5625" width="31.1719" height="34.7578" filterUnits="userSpaceOnUse" color-interpolation-filters="sRGB">
<feFlood flood-opacity="0" result="BackgroundImageFix"/>
<feBlend mode="normal" in="SourceGraphic" in2="BackgroundImageFix" result="shape"/>
<feGaussianBlur stdDeviation="1.5" result="effect1_foregroundBlur_572_399"/>
</filter>
<filter id="filter1_f_572_399" x="44.6875" y="26.875" width="41.5078" height="46.8867" filterUnits="userSpaceOnUse" color-interpolation-filters="sRGB">
<feFlood flood-opacity="0" result="BackgroundImageFix"/>
<feBlend mode="normal" in="SourceGraphic" in2="BackgroundImageFix" result="shape"/>
<feGaussianBlur stdDeviation="0.9375" result="effect1_foregroundBlur_572_399"/>
</filter>
<filter id="filter2_f_572_399" x="142.19" y="21.3555" width="161.395" height="33.0312" filterUnits="userSpaceOnUse" color-interpolation-filters="sRGB">
<feFlood flood-opacity="0" result="BackgroundImageFix"/>
<feBlend mode="normal" in="SourceGraphic" in2="BackgroundImageFix" result="shape"/>
<feGaussianBlur stdDeviation="1.90226" result="effect1_foregroundBlur_572_399"/>
</filter>
<linearGradient id="paint0_linear_572_399" x1="144.863" y1="41.0625" x2="297.863" y2="41.0625" gradientUnits="userSpaceOnUse">
<stop stop-color="white" stop-opacity="0.33"/>
<stop offset="1" stop-color="white"/>
</linearGradient>
<linearGradient id="paint1_linear_572_399" x1="144.863" y1="41.0625" x2="297.863" y2="41.0625" gradientUnits="userSpaceOnUse">
<stop/>
<stop offset="1" stop-opacity="0"/>
</linearGradient>
<linearGradient id="paint2_linear_572_399" x1="144.76" y1="41.0625" x2="297.76" y2="41.0625" gradientUnits="userSpaceOnUse">
<stop stop-color="white" stop-opacity="0.33"/>
<stop offset="1" stop-color="white"/>
</linearGradient>
<linearGradient id="paint3_linear_572_399" x1="144.76" y1="41.0625" x2="297.76" y2="41.0625" gradientUnits="userSpaceOnUse">
<stop/>
<stop offset="1" stop-opacity="0"/>
</linearGradient>
</defs>
</svg>
